<?xml version="1.0" encoding="utf-8"?>
<COLLADA xmlns="http://www.collada.org/2005/11/COLLADASchema" version="1.4.1">
  <asset>
    <created>2026-05-03T02:47:39Z</created>
    <modified>2026-05-03T02:47:39Z</modified>
  </asset>
  <library_images>
    <image id="Image">
      <init_from>../../../../../%C7%D7%C1%A6%BF%AC/Convert3D/data/stlmaterial</init_from>
    </image>
  </library_images>
  <library_materials>
    <material id="VisualMaterial" name="stlmaterial">
      <instance_effect url="#Effect"/>
      <extra>
        <technique profile="FCOLLADA">
          <user_properties>stlmaterial</user_properties>
        </technique>
      </extra>
    </material>
  </library_materials>
  <library_effects>
    <effect id="Effect" name="stlmaterial">
      <profile_COMMON>
        <newparam sid="Image-surface">
          <surface type="2D">
            <init_from>Image</init_from>
            <format>A8R8G8B8</format>
          </surface>
        </newparam>
        <newparam sid="Image-sampler">
          <sampler2D>
            <source>Image-surface</source>
            <wrap_s>WRAP</wrap_s>
            <wrap_t>WRAP</wrap_t>
            <minfilter>NONE</minfilter>
            <magfilter>NONE</magfilter>
            <mipfilter>NONE</mipfilter>
          </sampler2D>
        </newparam>
        <technique sid="common">
          <phong>
            <emission>
              <color>0 0 0 1</color>
            </emission>
            <ambient>
              <color>0 0 0 1</color>
            </ambient>
            <diffuse>
              <texture texture="Image-sampler" texcoord=""/>
            </diffuse>
            <specular>
              <color>1 1 1 1</color>
            </specular>
            <shininess>
              <float>0</float>
            </shininess>
            <transparent opaque="A_ONE">
              <color>0 0 0 1</color>
            </transparent>
            <transparency>
              <float>1</float>
            </transparency>
            <index_of_refraction>
              <float>1.55</float>
            </index_of_refraction>
          </phong>
          <extra>
            <technique profile="FCOLLADA">
              <spec_level>
                <float>0</float>
              </spec_level>
            </technique>
          </extra>
        </technique>
      </profile_COMMON>
      <extra>
        <technique profile="FCOLLADA">
          <user_properties>stlmaterial</user_properties>
        </technique>
      </extra>
    </effect>
  </library_effects>
  <library_geometries>
    <geometry id="Geometry" name="mesh0">
      <mesh>
        <source id="GeometrySource" name="mesh0Pos">
          <float_array id="GeometrySource-array" count="1296">-205.098 -700 102.349 -205.048 -947 102.334 -205.743 -947 102.585 -205.098 -700 102.349 -205.743 -947 102.585 -205.805 -700 102.613 -205.805 -700 102.613 -205.743 -947 102.585 -206.4 -947 102.923 -205.805 -700 102.613 -206.4 -947 102.923 -206.472 -700 102.967 -206.472 -700 102.967 -206.4 -947 102.923 -207.008 -947 103.343 -206.472 -700 102.967 -207.008 -947 103.343 -207.087 -700 103.406 -207.087 -700 103.406 -207.008 -947 103.343 -207.557 -947 103.838 -207.087 -700 103.406 -207.557 -947 103.838 -207.638 -700 103.923 -207.638 -700 103.923 -207.557 -947 103.838 -208.038 -947 104.4 -207.638 -700 103.923 -208.038 -947 104.4 -208.116 -700 104.507 -208.116 -700 104.507 -208.038 -947 104.4 -208.442 -947 105.019 -208.116 -700 104.507 -208.442 -947 105.019 -208.513 -700 105.149 -208.513 -700 105.149 -208.442 -947 105.019 -208.763 -947 105.684 -208.513 -700 105.149 -208.763 -947 105.684 -208.822 -700 105.838 -208.822 -700 105.838 -208.763 -947 105.684 -208.995 -947 106.386 -208.822 -700 105.838 -208.995 -947 106.386 -209.038 -700 106.562 -209.038 -700 106.562 -208.995 -947 106.386 -209.135 -947 107.112 -209.038 -700 106.562 -209.135 -947 107.112 -209.157 -700 107.308 -209.157 -700 107.308 -209.135 -947 107.112 -209.181 -947 107.849 -209.157 -700 107.308 -209.181 -947 107.849 -209.176 -700 108.062 -209.176 -700 108.062 -209.181 -947 107.849 -209.131 -947 108.587 -209.176 -700 108.062 -209.131 -947 108.587 -209.096 -700 108.813 -209.096 -700 108.813 -209.131 -947 108.587 -208.987 -947 109.311 -209.096 -700 108.813 -208.987 -947 109.311 -208.918 -700 109.547 -208.918 -700 109.547 -208.987 -947 109.311 -208.75 -947 110.011 -208.918 -700 109.547 -208.75 -947 110.011 -208.645 -700 110.251 -208.645 -700 110.251 -208.75 -947 110.011 -208.425 -947 110.675 -208.645 -700 110.251 -208.425 -947 110.675 -208.281 -700 110.913 -208.281 -700 110.913 -208.425 -947 110.675 -208.017 -947 111.291 -208.281 -700 110.913 -208.017 -947 111.291 -207.833 -700 111.521 -207.833 -700 111.521 -208.017 -947 111.291 -207.533 -947 111.85 -207.833 -700 111.521 -207.533 -947 111.85 -207.31 -700 112.065 -207.31 -700 112.065 -207.533 -947 111.85 -206.982 -947 112.342 -207.31 -700 112.065 -206.982 -947 112.342 -206.719 -700 112.535 -206.719 -700 112.535 -206.982 -947 112.342 -206.371 -947 112.758 -206.719 -700 112.535 -206.371 -947 112.758 -206.071 -700 112.924 -206.071 -700 112.924 -206.371 -947 112.758 -205.712 -947 113.093 -206.071 -700 112.924 -205.712 -947 113.093 -205.378 -700 113.224 -205.015 -947 113.339 -204.825 -823.505 113.39 -204.652 -700 113.429 -205.015 -947 113.339 -204.652 -700 113.429 -205.378 -700 113.224 -205.015 -947 113.339 -205.378 -700 113.224 -205.712 -947 113.093 -204.362 -700 102.181 -203.61 -700 102.111 -203.633 -700.704 102.112 -204.362 -700 102.181 -203.633 -700.704 102.112 -203.67 -703.014 102.113 -204.362 -700 102.181 -203.67 -703.014 102.113 -203.727 -709.369 102.115 -204.362 -700 102.181 -203.727 -709.369 102.115 -203.816 -725.809 102.12 -204.362 -700 102.181 -203.816 -725.809 102.12 -203.928 -757.571 102.128 -204.362 -700 102.181 -203.928 -757.571 102.128 -204.078 -816.496 102.143 -204.362 -700 102.181 -204.078 -816.496 102.143 -204.21 -881.748 102.159 -204.362 -700 102.181 -204.21 -881.748 102.159 -204.326 -947 102.175 -204.362 -700 102.181 -204.326 -947 102.175 -205.048 -947 102.334 -204.362 -700 102.181 -205.048 -947 102.334 -205.098 -700 102.349 -170.566 -947 101.326 -170.409 -947 104.322 -208.995 -947 106.386 -170.566 -947 101.326 -208.995 -947 106.386 -208.763 -947 105.684 -170.566 -947 101.326 -208.763 -947 105.684 -208.442 -947 105.019 -170.566 -947 101.326 -208.442 -947 105.019 -208.038 -947 104.4 -170.566 -947 101.326 -208.038 -947 104.4 -207.557 -947 103.838 -170.566 -947 101.326 -207.557 -947 103.838 -207.008 -947 103.343 -207.533 -947 111.85 -197.492 -947 111.544 -206.982 -947 112.342 -206.982 -947 112.342 -197.492 -947 111.544 -201.251 -947 112.453 -206.982 -947 112.342 -201.251 -947 112.453 -206.371 -947 112.758 -206.371 -947 112.758 -201.251 -947 112.453 -205.015 -947 113.339 -206.371 -947 112.758 -205.015 -947 113.339 -205.712 -947 113.093 -208.995 -947 106.386 -170.409 -947 104.322 -209.135 -947 107.112 -209.135 -947 107.112 -170.409 -947 104.322 -176.197 -947 105.954 -209.135 -947 107.112 -176.197 -947 105.954 -209.181 -947 107.849 -209.181 -947 107.849 -176.197 -947 105.954 -179.094 -947 106.757 -209.181 -947 107.849 -179.094 -947 106.757 -209.131 -947 108.587 -209.131 -947 108.587 -179.094 -947 106.757 -183.447 -947 107.939 -209.131 -947 108.587 -183.447 -947 107.939 -208.987 -947 109.311 -208.987 -947 109.311 -183.447 -947 107.939 -186.717 -947 108.806 -208.987 -947 109.311 -186.717 -947 108.806 -208.75 -947 110.011 -208.75 -947 110.011 -186.717 -947 108.806 -189.991 -947 109.658 -208.75 -947 110.011 -189.991 -947 109.658 -208.425 -947 110.675 -208.425 -947 110.675 -189.991 -947 109.658 -193.739 -947 110.612 -208.425 -947 110.675 -193.739 -947 110.612 -208.017 -947 111.291 -208.017 -947 111.291 -193.739 -947 110.612 -197.492 -947 111.544 -208.017 -947 111.291 -197.492 -947 111.544 -207.533 -947 111.85 -207.008 -947 103.343 -206.4 -947 102.923 -170.566 -947 101.326 -170.566 -947 101.326 -206.4 -947 102.923 -204.326 -947 102.175 -206.4 -947 102.923 -205.743 -947 102.585 -204.326 -947 102.175 -204.326 -947 102.175 -205.743 -947 102.585 -205.048 -947 102.334 -170.566 -700 101.326 -203.61 -700 102.111 -206.472 -700 102.967 -170.566 -700 101.326 -206.472 -700 102.967 -207.087 -700 103.406 -170.566 -700 101.326 -207.087 -700 103.406 -207.638 -700 103.923 -170.566 -700 101.326 -207.638 -700 103.923 -208.116 -700 104.507 -170.566 -700 101.326 -208.116 -700 104.507 -208.513 -700 105.149 -170.566 -700 101.326 -208.513 -700 105.149 -208.822 -700 105.838 -170.566 -700 101.326 -208.822 -700 105.838 -209.038 -700 106.562 -170.566 -700 101.326 -209.038 -700 106.562 -170.409 -700 104.322 -203.61 -700 102.111 -204.362 -700 102.181 -205.098 -700 102.349 -203.61 -700 102.111 -205.098 -700 102.349 -205.805 -700 102.613 -203.61 -700 102.111 -205.805 -700 102.613 -206.472 -700 102.967 -208.645 -700 110.251 -208.281 -700 110.913 -189.147 -700 109.503 -189.147 -700 109.503 -208.281 -700 110.913 -207.833 -700 111.521 -189.147 -700 109.503 -207.833 -700 111.521 -192.909 -700 110.487 -192.909 -700 110.487 -207.833 -700 111.521 -207.31 -700 112.065 -192.909 -700 110.487 -207.31 -700 112.065 -195.84 -700 111.24 -195.84 -700 111.24 -207.31 -700 112.065 -206.719 -700 112.535 -195.84 -700 111.24 -206.719 -700 112.535 -198.774 -700 111.982 -198.774 -700 111.982 -206.719 -700 112.535 -206.071 -700 112.924 -198.774 -700 111.982 -206.071 -700 112.924 -201.711 -700 112.712 -201.711 -700 112.712 -206.071 -700 112.924 -205.378 -700 113.224 -201.711 -700 112.712 -205.378 -700 113.224 -204.652 -700 113.429 -209.157 -700 107.308 -209.176 -700 108.062 -174.842 -700 105.582 -174.842 -700 105.582 -209.176 -700 108.062 -209.096 -700 108.813 -174.842 -700 105.582 -209.096 -700 108.813 -180.389 -700 107.135 -180.389 -700 107.135 -209.096 -700 108.813 -208.918 -700 109.547 -180.389 -700 107.135 -208.918 -700 109.547 -185.39 -700 108.501 -185.39 -700 108.501 -208.918 -700 109.547 -208.645 -700 110.251 -185.39 -700 108.501 -208.645 -700 110.251 -189.147 -700 109.503 -209.157 -700 107.308 -174.842 -700 105.582 -209.038 -700 106.562 -209.038 -700 106.562 -174.842 -700 105.582 -170.409 -700 104.322 -170.566 -947 101.326 -170.566 -823.5 101.326 -170.409 -947 104.322 -170.409 -947 104.322 -170.566 -823.5 101.326 -170.566 -700 101.326 -170.409 -947 104.322 -170.566 -700 101.326 -170.409 -700 104.322 -205.015 -947 113.339 -201.251 -947 112.453 -204.825 -823.505 113.39 -170.409 -947 104.322 -170.409 -700 104.322 -176.197 -947 105.954 -176.197 -947 105.954 -170.409 -700 104.322 -174.842 -700 105.582 -176.197 -947 105.954 -174.842 -700 105.582 -179.094 -947 106.757 -179.094 -947 106.757 -174.842 -700 105.582 -180.389 -700 107.135 -179.094 -947 106.757 -180.389 -700 107.135 -183.447 -947 107.939 -183.447 -947 107.939 -180.389 -700 107.135 -185.39 -700 108.501 -183.447 -947 107.939 -185.39 -700 108.501 -186.717 -947 108.806 -186.717 -947 108.806 -185.39 -700 108.501 -189.147 -700 109.503 -186.717 -947 108.806 -189.147 -700 109.503 -189.991 -947 109.658 -189.991 -947 109.658 -189.147 -700 109.503 -192.909 -700 110.487 -189.991 -947 109.658 -192.909 -700 110.487 -193.739 -947 110.612 -193.739 -947 110.612 -192.909 -700 110.487 -195.84 -700 111.24 -193.739 -947 110.612 -195.84 -700 111.24 -198.774 -700 111.982 -193.739 -947 110.612 -198.774 -700 111.982 -197.492 -947 111.544 -197.492 -947 111.544 -198.774 -700 111.982 -201.711 -700 112.712 -197.492 -947 111.544 -201.711 -700 112.712 -201.251 -947 112.453 -201.251 -947 112.453 -201.711 -700 112.712 -204.652 -700 113.429 -201.251 -947 112.453 -204.652 -700 113.429 -204.825 -823.505 113.39 -204.326 -947 102.175 -204.21 -881.748 102.159 -170.566 -947 101.326 -170.566 -823.5 101.326 -170.566 -947 101.326 -204.21 -881.748 102.159 -170.566 -823.5 101.326 -204.21 -881.748 102.159 -204.078 -816.496 102.143 -170.566 -823.5 101.326 -204.078 -816.496 102.143 -203.928 -757.571 102.128 -170.566 -823.5 101.326 -203.928 -757.571 102.128 -203.816 -725.809 102.12 -170.566 -823.5 101.326 -203.816 -725.809 102.12 -203.727 -709.369 102.115 -170.566 -823.5 101.326 -203.727 -709.369 102.115 -203.67 -703.014 102.113 -170.566 -823.5 101.326 -203.67 -703.014 102.113 -203.633 -700.704 102.112 -170.566 -823.5 101.326 -203.633 -700.704 102.112 -203.61 -700 102.111 -170.566 -823.5 101.326 -203.61 -700 102.111 -170.566 -700 101.326</float_array>
          <technique_common>
            <accessor source="#GeometrySource-array" count="432" stride="3">
              <param name="X" type="float"/>
              <param name="Y" type="float"/>
              <param name="Z" type="float"/>
            </accessor>
          </technique_common>
        </source>
        <source id="GeometrySource1" name="mesh0Nrm">
          <float_array id="GeometrySource1-array" count="1296">-0.339232 -0.000012 -0.940703 -0.339232 -0.000012 -0.940703 -0.339232 -0.000012 -0.940703 -0.34905 0.000016 -0.937104 -0.34905 0.000016 -0.937104 -0.34905 0.000016 -0.937104 -0.457737 -0.000016 -0.889088 -0.457737 -0.000016 -0.889088 -0.457737 -0.000016 -0.889088 -0.469582 0.00002 -0.882889 -0.469582 0.00002 -0.882889 -0.469582 0.00002 -0.882889 -0.568453 -0.000019 -0.822716 -0.568453 -0.000019 -0.822716 -0.568453 -0.000019 -0.822716 -0.5816 0.000023 -0.813475 -0.5816 0.000023 -0.813475 -0.5816 0.000023 -0.813475 -0.669701 -0.000022 -0.742631 -0.669701 -0.000022 -0.742631 -0.669701 -0.000022 -0.742631 -0.683686 0.000026 -0.729776 -0.683686 0.000026 -0.729776 -0.683686 0.000026 -0.729776 -0.759839 -0.000025 -0.650111 -0.759839 -0.000025 -0.650111 -0.759839 -0.000025 -0.650111 -0.773742 0.000029 -0.633501 -0.773742 0.000029 -0.633501 -0.773742 0.000029 -0.633501 -0.837279 -0.000028 -0.546776 -0.837279 -0.000028 -0.546776 -0.837279 -0.000028 -0.546776 -0.850511 0.000032 -0.525957 -0.850511 0.000032 -0.525957 -0.850511 0.000032 -0.525957 -0.90075 -0.00003 -0.434338 -0.90075 -0.00003 -0.434338 -0.90075 -0.00003 -0.434338 -0.912317 0.000034 -0.409484 -0.912317 0.000034 -0.409484 -0.912317 0.000034 -0.409484 -0.949224 -0.000033 -0.314601 -0.949224 -0.000033 -0.314601 -0.949224 -0.000033 -0.314601 -0.958268 0.000036 -0.285873 -0.958268 0.000036 -0.285873 -0.958268 0.000036 -0.285873 -0.981841 -0.000035 -0.189707 -0.981841 -0.000035 -0.189707 -0.981841 -0.000035 -0.189707 -0.987567 0.000038 -0.157197 -0.987567 0.000038 -0.157197 -0.987567 0.000038 -0.157197 -0.998103 -0.000038 -0.061572 -0.998103 -0.000038 -0.061572 -0.998103 -0.000038 -0.061572 -0.99967 0.00004 -0.025702 -0.99967 0.00004 -0.025702 -0.99967 0.00004 -0.025702 -0.997719 -0.000039 0.06751 -0.997719 -0.000039 0.06751 -0.997719 -0.000039 0.06751 -0.994357 0.000042 0.106082 -0.994357 0.000042 0.106082 -0.994357 0.000042 0.106082 -0.980695 -0.000041 0.195544 -0.980695 -0.000041 0.195544 -0.980695 -0.000041 0.195544 -0.971734 0.000044 0.236079 -0.971734 0.000044 0.236079 -0.971734 0.000044 0.236079 -0.947331 -0.000042 0.320257 -0.947331 -0.000042 0.320257 -0.947331 -0.000042 0.320257 -0.9322 0.000045 0.361944 -0.9322 0.000045 0.361944 -0.9322 0.000045 0.361944 -0.898164 -0.000044 0.439661 -0.898164 -0.000044 0.439661 -0.898164 -0.000044 0.439661 -0.876465 0.000046 0.481466 -0.876465 0.000046 0.481466 -0.876465 0.000046 0.481466 -0.833995 -0.000045 0.551771 -0.833995 -0.000045 0.551771 -0.833995 -0.000045 0.551771 -0.805401 0.000047 0.59273 -0.805401 0.000047 0.59273 -0.805401 0.000047 0.59273 -0.755965 -0.000046 0.654612 -0.755965 -0.000046 0.654612 -0.755965 -0.000046 0.654612 -0.720288 0.000048 0.693675 -0.720288 0.000048 0.693675 -0.720288 0.000048 0.693675 -0.665353 -0.000046 0.746529 -0.665353 -0.000046 0.746529 -0.665353 -0.000046 0.746529 -0.62274 0.000049 0.782429 -0.62274 0.000049 0.782429 -0.62274 0.000049 0.782429 -0.56347 -0.000047 0.826137 -0.56347 -0.000047 0.826137 -0.56347 -0.000047 0.826137 -0.514338 0.00005 0.857587 -0.514338 0.00005 0.857587 -0.514338 0.00005 0.857587 -0.45245 -0.000047 0.89179 -0.45245 -0.000047 0.89179 -0.45245 -0.000047 0.89179 -0.397007 0.00005 0.917816 -0.397007 0.00005 0.917816 -0.397007 0.00005 0.917816 -0.524002 0.00046 0.851717 -0.524002 0.00046 0.851717 -0.524002 0.00046 0.851717 -0.272635 0.00005 0.962118 -0.272635 0.00005 0.962118 -0.272635 0.00005 0.962118 -0.333675 -0.000048 0.942688 -0.333675 -0.000048 0.942688 -0.333675 -0.000048 0.942688 -0.092434 0.002015 -0.995717 -0.092434 0.002015 -0.995717 -0.092434 0.002015 -0.995717 -0.093421 0.000983 -0.995626 -0.093421 0.000983 -0.995626 -0.093421 0.000983 -0.995626 -0.095574 0.000485 -0.995422 -0.095574 0.000485 -0.995422 -0.095574 0.000485 -0.995422 -0.099182 0.000238 -0.995069 -0.099182 0.000238 -0.995069 -0.099182 0.000238 -0.995069 -0.10481 0.000117 -0.994492 -0.10481 0.000117 -0.994492 -0.10481 0.000117 -0.994492 -0.114108 0.000046 -0.993468 -0.114108 0.000046 -0.993468 -0.114108 0.000046 -0.993468 -0.126799 0.000015 -0.991929 -0.126799 0.000015 -0.991929 -0.126799 0.000015 -0.991929 -0.142947 0.000001 -0.98973 -0.142947 0.000001 -0.98973 -0.142947 0.000001 -0.98973 -0.215279 -0.000008 -0.976553 -0.215279 -0.000008 -0.976553 -0.215279 -0.000008 -0.976553 -0.222731 0.000012 -0.97488 -0.222731 0.000012 -0.97488 -0.222731 0.000012 -0.97488 0 -1 0 0 -1 0 0 -1 0 0 -1 0 0 -1 0 0 -1 0 0 -1 0 0 -1 0 0 -1 0 0 -1 0 0 -1 0 0 -1 0 0 -1 0 0 -1 0 0 -1 0 0 -1 0 0 -1 0 0 -1 0 0 -1 0 0 -1 0 0 -1 0 0 -1 0 0 -1 0 0 -1 0 0 -1 0 0 -1 0 0 -1 0 0 -1 0 0 -1 0 0 -1 0 0 -1 0 0 -1 0 0 -1 0 0 -1 0 0 -1 0 0 -1 0 0 -1 0 0 -1 0 0 -1 0 0 -1 0 0 -1 0 0 -1 0 0 -1 0 0 -1 0 0 -1 0 0 -1 0 0 -1 0 0 -1 0 0 -1 0 0 -1 0 0 -1 0 0 -1 0 0 -1 0 0 -1 0 0 -1 0 0 -1 0 0 -1 0 0 -1 0 0 -1 0 0 -1 0 0 -1 0 0 -1 0 0 -1 0 0 -1 0 0 -1 0 0 -1 0 0 -1 0 0 -1 0 0 -1 0 0 -1 0 0 -1 0 0 -1 0 0 -1 0 0 -1 0 0 -1 0 0 -1 0 0 -1 0 0 -1 0 0 -1 0 0 -1 0 0 -1 0 0 -1 0 0 -1 0 0 -1 0 0 -1 0 0 -1 0 0 -1 0 0 -1 0 0 -1 0 0 -1 0 0 1 0 0 1 0 0 1 0 0 1 0 0 1 0 0 1 0 0 1 0 0 1 0 0 1 0 0 1 0 0 1 0 0 1 0 0 1 0 0 1 0 0 1 0 0 1 0 0 1 0 0 1 0 0 1 0 0 1 0 0 1 0 0 1 0 0 1 0 0 1 0 0 1 0 0 1 0 0 1 0 0 1 0 0 1 0 0 1 0 0 1 0 0 1 0 0 1 0 0 1 0 0 1 0 0 1 0 0 1 0 0 1 0 0 1 0 0 1 0 0 1 0 0 1 0 0 1 0 0 1 0 0 1 0 0 1 0 0 1 0 0 1 0 0 1 0 0 1 0 0 1 0 0 1 0 0 1 0 0 1 0 0 1 0 0 1 0 0 1 0 0 1 0 0 1 0 0 1 0 0 1 0 0 1 0 0 1 0 0 1 0 0 1 0 0 1 0 0 1 0 0 1 0 0 1 0 0 1 0 0 1 0 0 1 0 0 1 0 0 1 0 0 1 0 0 1 0 0 1 0 0 1 0 0 1 0 0 1 0 0 1 0 0 1 0 0 1 0 0 1 0 0 1 0 0 1 0 0 1 0 0 1 0 0 1 0 0 1 0 0 1 0 0 1 0 0 1 0 0.99863 0 -0.052332 0.99863 0 -0.052332 0.99863 0 -0.052332 0.99863 0 -0.052332 0.99863 0 -0.052332 0.99863 0 -0.052332 0.99863 0 -0.052332 0.99863 0 -0.052332 0.99863 0 -0.052332 0.229098 -0.000749 0.973403 0.229098 -0.000749 0.973403 0.229098 -0.000749 0.973403 0.271358 0 0.962478 0.271358 0 0.962478 0.271358 0 0.962478 0.273414 -0.000052 0.961896 0.273414 -0.000052 0.961896 0.273414 -0.000052 0.961896 0.267153 -0.000015 0.963654 0.267153 -0.000015 0.963654 0.267153 -0.000015 0.963654 0.269632 -0.000061 0.962963 0.269632 -0.000061 0.962963 0.269632 -0.000061 0.962963 0.262023 -0.000104 0.965062 0.262023 -0.000104 0.965062 0.262023 -0.000104 0.965062 0.263384 -0.000122 0.964691 0.263384 -0.000122 0.964691 0.263384 -0.000122 0.964691 0.256379 -0.000181 0.966576 0.256379 -0.000181 0.966576 0.256379 -0.000181 0.966576 0.257718 -0.000189 0.96622 0.257718 -0.000189 0.96622 0.257718 -0.000189 0.96622 0.251658 -0.000253 0.967816 0.251658 -0.000253 0.967816 0.251658 -0.000253 0.967816 0.252992 -0.000258 0.967469 0.252992 -0.000258 0.967469 0.252992 -0.000258 0.967469 0.246708 -0.000337 0.96909 0.246708 -0.000337 0.96909 0.246708 -0.000337 0.96909 0.248896 -0.000345 0.96853 0.248896 -0.000345 0.96853 0.248896 -0.000345 0.96853 0.245139 -0.000379 0.969488 0.245139 -0.000379 0.969488 0.245139 -0.000379 0.969488 0.241043 -0.000468 0.970514 0.241043 -0.000468 0.970514 0.241043 -0.000468 0.970514 0.2412 -0.000468 0.970475 0.2412 -0.000468 0.970475 0.2412 -0.000468 0.970475 0.235149 -0.000578 0.971959 0.235149 -0.000578 0.971959 0.235149 -0.000578 0.971959 0.237173 -0.000574 0.971467 0.237173 -0.000574 0.971467 0.237173 -0.000574 0.971467 0.232635 -0.00064 0.972564 0.232635 -0.00064 0.972564 0.232635 -0.00064 0.972564 -0.025142 -0.000211 -0.999684 -0.025142 -0.000211 -0.999684 -0.025142 -0.000211 -0.999684 -0.024733 0 -0.999694 -0.024733 0 -0.999694 -0.024733 0 -0.999694 -0.024397 -0.000194 -0.999702 -0.024397 -0.000194 -0.999702 -0.024397 -0.000194 -0.999702 -0.024395 -0.000182 -0.999702 -0.024395 -0.000182 -0.999702 -0.024395 -0.000182 -0.999702 -0.024367 -0.000168 -0.999703 -0.024367 -0.000168 -0.999703 -0.024367 -0.000168 -0.999703 -0.024362 -0.000166 -0.999703 -0.024362 -0.000166 -0.999703 -0.024362 -0.000166 -0.999703 -0.024331 -0.000157 -0.999704 -0.024331 -0.000157 -0.999704 -0.024331 -0.000157 -0.999704 -0.024228 -0.000129 -0.999707 -0.024228 -0.000129 -0.999707 -0.024228 -0.000129 -0.999707 -0.02449 -0.0002 -0.9997 -0.02449 -0.0002 -0.9997 -0.02449 -0.0002 -0.9997 -0.023743 0 -0.999718 -0.023743 0 -0.999718 -0.023743 0 -0.999718</float_array>
          <technique_common>
            <accessor source="#GeometrySource1-array" count="432" stride="3">
              <param name="X" type="float"/>
              <param name="Y" type="float"/>
              <param name="Z" type="float"/>
            </accessor>
          </technique_common>
        </source>
        <source id="GeometrySource2" name="mesh0UV">
          <float_array id="GeometrySource2-array" count="864">0 0 0 0 0 0 0 0 0 0 0 0 0 0 0 0 0 0 0 0 0 0 0 0 0 0 0 0 0 0 0 0 0 0 0 0 0 0 0 0 0 0 0 0 0 0 0 0 0 0 0 0 0 0 0 0 0 0 0 0 0 0 0 0 0 0 0 0 0 0 0 0 0 0 0 0 0 0 0 0 0 0 0 0 0 0 0 0 0 0 0 0 0 0 0 0 0 0 0 0 0 0 0 0 0 0 0 0 0 0 0 0 0 0 0 0 0 0 0 0 0 0 0 0 0 0 0 0 0 0 0 0 0 0 0 0 0 0 0 0 0 0 0 0 0 0 0 0 0 0 0 0 0 0 0 0 0 0 0 0 0 0 0 0 0 0 0 0 0 0 0 0 0 0 0 0 0 0 0 0 0 0 0 0 0 0 0 0 0 0 0 0 0 0 0 0 0 0 0 0 0 0 0 0 0 0 0 0 0 0 0 0 0 0 0 0 0 0 0 0 0 0 0 0 0 0 0 0 0 0 0 0 0 0 0 0 0 0 0 0 0 0 0 0 0 0 0 0 0 0 0 0 0 0 0 0 0 0 0 0 0 0 0 0 0 0 0 0 0 0 0 0 0 0 0 0 0 0 0 0 0 0 0 0 0 0 0 0 0 0 0 0 0 0 0 0 0 0 0 0 0 0 0 0 0 0 0 0 0 0 0 0 0 0 0 0 0 0 0 0 0 0 0 0 0 0 0 0 0 0 0 0 0 0 0 0 0 0 0 0 0 0 0 0 0 0 0 0 0 0 0 0 0 0 0 0 0 0 0 0 0 0 0 0 0 0 0 0 0 0 0 0 0 0 0 0 0 0 0 0 0 0 0 0 0 0 0 0 0 0 0 0 0 0 0 0 0 0 0 0 0 0 0 0 0 0 0 0 0 0 0 0 0 0 0 0 0 0 0 0 0 0 0 0 0 0 0 0 0 0 0 0 0 0 0 0 0 0 0 0 0 0 0 0 0 0 0 0 0 0 0 0 0 0 0 0 0 0 0 0 0 0 0 0 0 0 0 0 0 0 0 0 0 0 0 0 0 0 0 0 0 0 0 0 0 0 0 0 0 0 0 0 0 0 0 0 0 0 0 0 0 0 0 0 0 0 0 0 0 0 0 0 0 0 0 0 0 0 0 0 0 0 0 0 0 0 0 0 0 0 0 0 0 0 0 0 0 0 0 0 0 0 0 0 0 0 0 0 0 0 0 0 0 0 0 0 0 0 0 0 0 0 0 0 0 0 0 0 0 0 0 0 0 0 0 0 0 0 0 0 0 0 0 0 0 0 0 0 0 0 0 0 0 0 0 0 0 0 0 0 0 0 0 0 0 0 0 0 0 0 0 0 0 0 0 0 0 0 0 0 0 0 0 0 0 0 0 0 0 0 0 0 0 0 0 0 0 0 0 0 0 0 0 0 0 0 0 0 0 0 0 0 0 0 0 0 0 0 0 0 0 0 0 0 0 0 0 0 0 0 0 0 0 0 0 0 0 0 0 0 0 0 0 0 0 0 0 0 0 0 0 0 0 0 0 0 0 0 0 0 0 0 0 0 0 0 0 0 0 0 0 0 0 0 0 0 0 0 0 0 0 0 0 0 0 0 0 0 0 0 0 0 0 0 0 0 0 0 0 0 0 0 0 0 0 0 0 0 0 0 0 0 0 0 0 0 0 0 0 0 0 0 0 0 0 0 0 0 0 0 0 0 0 0 0 0 0 0 0 0 0 0 0 0 0 0 0 0 0 0 0 0 0 0 0 0 0 0 0 0 0 0 0 0 0 0 0 0 0 0 0 0 0 0 0 0 0 0 0 0 0 0 0 0 0 0 0 0 0 0 0 0 0 0 0 0 0 0 0 0 0 0 0 0 0 0 0 0 0 0 0 0 0 0 0 0 0 0 0 0 0 0 0 0</float_array>
          <technique_common>
            <accessor source="#GeometrySource2-array" count="432" stride="2">
              <param name="S" type="float"/>
              <param name="T" type="float"/>
            </accessor>
          </technique_common>
        </source>
        <vertices id="Geometry-vertices">
          <input semantic="POSITION" source="#GeometrySource"/>
          <input semantic="NORMAL" source="#GeometrySource1"/>
          <input semantic="TEXCOORD" source="#GeometrySource2"/>
        </vertices>
        <triangles material="VisualMaterial0" count="144">
          <input semantic="VERTEX" source="#Geometry-vertices" offset="0"/>
          <p>0 1 2 3 4 5 6 7 8 9 10 11 12 13 14 15 16 17 18 19 20 21 22 23 24 25 26 27 28 29 30 31 32 33 34 35 36 37 38 39 40 41 42 43 44 45 46 47 48 49 50 51 52 53 54 55 56 57 58 59 60 61 62 63 64 65 66 67 68 69 70 71 72 73 74 75 76 77 78 79 80 81 82 83 84 85 86 87 88 89 90 91 92 93 94 95 96 97 98 99 100 101 102 103 104 105 106 107 108 109 110 111 112 113 114 115 116 117 118 119 120 121 122 123 124 125 126 127 128 129 130 131 132 133 134 135 136 137 138 139 140 141 142 143 144 145 146 147 148 149 150 151 152 153 154 155 156 157 158 159 160 161 162 163 164 165 166 167 168 169 170 171 172 173 174 175 176 177 178 179 180 181 182 183 184 185 186 187 188 189 190 191 192 193 194 195 196 197 198 199 200 201 202 203 204 205 206 207 208 209 210 211 212 213 214 215 216 217 218 219 220 221 222 223 224 225 226 227 228 229 230 231 232 233 234 235 236 237 238 239 240 241 242 243 244 245 246 247 248 249 250 251 252 253 254 255 256 257 258 259 260 261 262 263 264 265 266 267 268 269 270 271 272 273 274 275 276 277 278 279 280 281 282 283 284 285 286 287 288 289 290 291 292 293 294 295 296 297 298 299 300 301 302 303 304 305 306 307 308 309 310 311 312 313 314 315 316 317 318 319 320 321 322 323 324 325 326 327 328 329 330 331 332 333 334 335 336 337 338 339 340 341 342 343 344 345 346 347 348 349 350 351 352 353 354 355 356 357 358 359 360 361 362 363 364 365 366 367 368 369 370 371 372 373 374 375 376 377 378 379 380 381 382 383 384 385 386 387 388 389 390 391 392 393 394 395 396 397 398 399 400 401 402 403 404 405 406 407 408 409 410 411 412 413 414 415 416 417 418 419 420 421 422 423 424 425 426 427 428 429 430 431</p>
        </triangles>
      </mesh>
    </geometry>
  </library_geometries>
  <library_visual_scenes>
    <visual_scene id="VisualSceneNode" name="rdmscene">
      <node id="VisualSceneNode1" name="mesh0" type="NODE">
        <matrix>1 0 0 0 0 1 0 0 0 0 1 0 0 0 0 1</matrix>
        <instance_geometry url="#Geometry">
          <bind_material>
            <technique_common>
              <instance_material symbol="VisualMaterial0" target="#VisualMaterial"/>
            </technique_common>
          </bind_material>
        </instance_geometry>
      </node>
    </visual_scene>
  </library_visual_scenes>
  <scene>
    <instance_visual_scene url="#VisualSceneNode"/>
  </scene>
</COLLADA>
