<?xml version="1.0" encoding="utf-8"?>
<COLLADA xmlns="http://www.collada.org/2005/11/COLLADASchema" version="1.4.1">
  <asset>
    <created>2026-02-02T03:28:41Z</created>
    <modified>2026-02-02T03:28:41Z</modified>
  </asset>
  <library_images>
    <image id="Image">
      <init_from>../../%C7%D7%C1%A6%BF%AC/Convert3D/data/stlmaterial</init_from>
    </image>
  </library_images>
  <library_materials>
    <material id="VisualMaterial" name="stlmaterial">
      <instance_effect url="#Effect"/>
      <extra>
        <technique profile="FCOLLADA">
          <user_properties>stlmaterial</user_properties>
        </technique>
      </extra>
    </material>
  </library_materials>
  <library_effects>
    <effect id="Effect" name="stlmaterial">
      <profile_COMMON>
        <newparam sid="Image-surface">
          <surface type="2D">
            <init_from>Image</init_from>
            <format>A8R8G8B8</format>
          </surface>
        </newparam>
        <newparam sid="Image-sampler">
          <sampler2D>
            <source>Image-surface</source>
            <wrap_s>WRAP</wrap_s>
            <wrap_t>WRAP</wrap_t>
            <minfilter>NONE</minfilter>
            <magfilter>NONE</magfilter>
            <mipfilter>NONE</mipfilter>
          </sampler2D>
        </newparam>
        <technique sid="common">
          <phong>
            <emission>
              <color>0 0 0 1</color>
            </emission>
            <ambient>
              <color>0 0 0 1</color>
            </ambient>
            <diffuse>
              <texture texture="Image-sampler" texcoord=""/>
            </diffuse>
            <specular>
              <color>1 1 1 1</color>
            </specular>
            <shininess>
              <float>0</float>
            </shininess>
            <transparent opaque="A_ONE">
              <color>0 0 0 1</color>
            </transparent>
            <transparency>
              <float>1</float>
            </transparency>
            <index_of_refraction>
              <float>1.55</float>
            </index_of_refraction>
          </phong>
          <extra>
            <technique profile="FCOLLADA">
              <spec_level>
                <float>0</float>
              </spec_level>
            </technique>
          </extra>
        </technique>
      </profile_COMMON>
      <extra>
        <technique profile="FCOLLADA">
          <user_properties>stlmaterial</user_properties>
        </technique>
      </extra>
    </effect>
  </library_effects>
  <library_geometries>
    <geometry id="Geometry" name="mesh0">
      <mesh>
        <source id="GeometrySource" name="mesh0Pos">
          <float_array id="GeometrySource-array" count="468">1121.77 251.147 190.245 1115.08 389.711 111.013 1115.08 251.147 191.013 1115.08 251.147 191.013 1115.08 389.711 111.013 1108.41 389.711 111.725 1115.08 251.147 191.013 1108.41 389.711 111.725 1108.41 251.147 191.725 1108.41 251.147 191.725 1108.41 389.711 111.725 1101.73 389.711 112.378 1108.41 251.147 191.725 1101.73 389.711 112.378 1101.73 251.147 192.378 1115.08 389.711 111.013 1121.77 251.147 190.245 1121.77 389.711 110.245 1121.77 389.711 110.245 1121.77 251.147 190.245 1128.44 251.147 189.421 1121.77 389.711 110.245 1128.44 251.147 189.421 1128.44 389.711 109.421 1128.44 389.711 109.421 1128.44 251.147 189.421 1135.1 251.147 188.539 1128.44 389.711 109.421 1135.1 251.147 188.539 1135.1 389.711 108.539 1135.1 389.711 108.539 1135.1 251.147 188.539 1141.73 251.147 187.594 1135.1 389.711 108.539 1141.73 251.147 187.594 1141.73 389.711 107.594 1121.77 251.147 181.479 1128.44 389.711 102.303 1128.44 251.147 182.303 1128.44 251.147 182.303 1128.44 389.711 102.303 1135.1 389.711 103.185 1128.44 251.147 182.303 1135.1 389.711 103.185 1135.1 251.147 183.185 1135.1 251.147 183.185 1135.1 389.711 103.185 1141.73 389.711 104.13 1135.1 251.147 183.185 1141.73 389.711 104.13 1141.73 251.147 184.13 1128.44 389.711 102.303 1121.77 251.147 181.479 1121.77 389.711 101.479 1121.77 389.711 101.479 1121.77 251.147 181.479 1115.08 251.147 180.711 1121.77 389.711 101.479 1115.08 251.147 180.711 1115.08 389.711 100.711 1115.08 389.711 100.711 1115.08 251.147 180.711 1108.41 251.147 179.999 1115.08 389.711 100.711 1108.41 251.147 179.999 1108.41 389.711 99.9993 1108.41 389.711 99.9993 1108.41 251.147 179.999 1101.73 251.147 179.346 1108.41 389.711 99.9993 1101.73 251.147 179.346 1101.73 389.711 99.3462 1141.73 251.147 187.594 1141.73 251.147 184.13 1141.73 389.711 107.594 1141.73 389.711 107.594 1141.73 251.147 184.13 1141.73 389.711 104.13 1141.73 251.147 187.594 1135.1 251.147 188.539 1128.44 251.147 189.421 1141.73 251.147 187.594 1128.44 251.147 189.421 1121.77 251.147 190.245 1141.73 251.147 187.594 1121.77 251.147 190.245 1115.08 251.147 191.013 1141.73 251.147 187.594 1115.08 251.147 191.013 1108.41 251.147 191.725 1141.73 251.147 187.594 1108.41 251.147 191.725 1101.73 251.147 192.378 1141.73 251.147 187.594 1101.73 251.147 192.378 1101.73 251.147 179.346 1141.73 251.147 187.594 1101.73 251.147 179.346 1141.73 251.147 184.13 1101.73 251.147 179.346 1108.41 251.147 179.999 1115.08 251.147 180.711 1101.73 251.147 179.346 1115.08 251.147 180.711 1121.77 251.147 181.479 1101.73 251.147 179.346 1121.77 251.147 181.479 1128.44 251.147 182.303 1101.73 251.147 179.346 1128.44 251.147 182.303 1135.1 251.147 183.185 1101.73 251.147 179.346 1135.1 251.147 183.185 1141.73 251.147 184.13 1101.73 389.711 99.3462 1101.73 251.147 179.346 1101.73 389.711 112.378 1101.73 389.711 112.378 1101.73 251.147 179.346 1101.73 251.147 192.378 1141.73 389.711 107.594 1141.73 389.711 104.13 1101.73 389.711 99.3462 1141.73 389.711 107.594 1101.73 389.711 99.3462 1101.73 389.711 112.378 1141.73 389.711 107.594 1101.73 389.711 112.378 1108.41 389.711 111.725 1141.73 389.711 107.594 1108.41 389.711 111.725 1115.08 389.711 111.013 1141.73 389.711 107.594 1115.08 389.711 111.013 1121.77 389.711 110.245 1141.73 389.711 107.594 1121.77 389.711 110.245 1128.44 389.711 109.421 1141.73 389.711 107.594 1128.44 389.711 109.421 1135.1 389.711 108.539 1101.73 389.711 99.3462 1141.73 389.711 104.13 1135.1 389.711 103.185 1101.73 389.711 99.3462 1135.1 389.711 103.185 1128.44 389.711 102.303 1101.73 389.711 99.3462 1128.44 389.711 102.303 1121.77 389.711 101.479 1101.73 389.711 99.3462 1121.77 389.711 101.479 1115.08 389.711 100.711 1101.73 389.711 99.3462 1115.08 389.711 100.711 1108.41 389.711 99.9993</float_array>
          <technique_common>
            <accessor source="#GeometrySource-array" count="156" stride="3">
              <param name="X" type="float"/>
              <param name="Y" type="float"/>
              <param name="Z" type="float"/>
            </accessor>
          </technique_common>
        </source>
        <source id="GeometrySource1" name="mesh0Nrm">
          <float_array id="GeometrySource1-array" count="468">0.099045 0.497542 0.861767 0.099045 0.497542 0.861767 0.099045 0.497542 0.861767 0.091892 0.497885 0.862361 0.091892 0.497885 0.862361 0.091892 0.497885 0.862361 0.091891 0.497885 0.862361 0.091891 0.497885 0.862361 0.091891 0.497885 0.862361 0.084481 0.498213 0.862929 0.084481 0.498213 0.862929 0.084481 0.498213 0.862929 0.084482 0.498213 0.862929 0.084482 0.498213 0.862929 0.084482 0.498213 0.862929 0.099045 0.497542 0.861767 0.099045 0.497542 0.861767 0.099045 0.497542 0.861767 0.106323 0.497166 0.861116 0.106323 0.497166 0.861116 0.106323 0.497166 0.861116 0.106324 0.497166 0.861116 0.106324 0.497166 0.861116 0.106324 0.497166 0.861116 0.11402 0.49674 0.860378 0.11402 0.49674 0.860378 0.11402 0.49674 0.860378 0.11402 0.49674 0.860378 0.11402 0.49674 0.860378 0.11402 0.49674 0.860378 0.122354 0.496244 0.859518 0.122354 0.496244 0.859518 0.122354 0.496244 0.859518 0.122353 0.496244 0.859519 0.122353 0.496244 0.859519 0.122353 0.496244 0.859519 0.106325 -0.497166 -0.861116 0.106325 -0.497166 -0.861116 0.106325 -0.497166 -0.861116 0.11402 -0.49674 -0.860378 0.11402 -0.49674 -0.860378 0.11402 -0.49674 -0.860378 0.114018 -0.49674 -0.860378 0.114018 -0.49674 -0.860378 0.114018 -0.49674 -0.860378 0.122365 -0.496243 -0.859517 0.122365 -0.496243 -0.859517 0.122365 -0.496243 -0.859517 0.122367 -0.496243 -0.859517 0.122367 -0.496243 -0.859517 0.122367 -0.496243 -0.859517 0.106324 -0.497166 -0.861116 0.106324 -0.497166 -0.861116 0.106324 -0.497166 -0.861116 0.099045 -0.497542 -0.861767 0.099045 -0.497542 -0.861767 0.099045 -0.497542 -0.861767 0.099045 -0.497542 -0.861767 0.099045 -0.497542 -0.861767 0.099045 -0.497542 -0.861767 0.09188 -0.497885 -0.862362 0.09188 -0.497885 -0.862362 0.09188 -0.497885 -0.862362 0.09188 -0.497885 -0.862362 0.09188 -0.497885 -0.862362 0.09188 -0.497885 -0.862362 0.08448 -0.498213 -0.862929 0.08448 -0.498213 -0.862929 0.08448 -0.498213 -0.862929 0.084481 -0.498213 -0.862929 0.084481 -0.498213 -0.862929 0.084481 -0.498213 -0.862929 1 0 0 1 0 0 1 0 0 1 0 0 1 0 0 1 0 0 0 -1 0 0 -1 0 0 -1 0 0 -1 0 0 -1 0 0 -1 0 0 -1 0 0 -1 0 0 -1 0 0 -1 0 0 -1 0 0 -1 0 0 -1 0 0 -1 0 0 -1 0 0 -1 0 0 -1 0 0 -1 0 0 -1 0 0 -1 0 0 -1 0 0 -1 0 0 -1 0 0 -1 0 0 -1 0 0 -1 0 0 -1 0 0 -1 0 0 -1 0 0 -1 0 0 -1 0 0 -1 0 0 -1 0 0 -1 0 0 -1 0 0 -1 0 -1 0 0 -1 0 0 -1 0 0 -1 0 0 -1 0 0 -1 0 0 0 1 0 0 1 0 0 1 0 0 1 0 0 1 0 0 1 0 0 1 0 0 1 0 0 1 0 0 1 0 0 1 0 0 1 0 0 1 0 0 1 0 0 1 0 0 1 0 0 1 0 0 1 0 0 1 0 0 1 0 0 1 0 0 1 0 0 1 0 0 1 0 0 1 0 0 1 0 0 1 0 0 1 0 0 1 0 0 1 0 0 1 0 0 1 0 0 1 0 0 1 0 0 1 0 0 1 0</float_array>
          <technique_common>
            <accessor source="#GeometrySource1-array" count="156" stride="3">
              <param name="X" type="float"/>
              <param name="Y" type="float"/>
              <param name="Z" type="float"/>
            </accessor>
          </technique_common>
        </source>
        <source id="GeometrySource2" name="mesh0UV">
          <float_array id="GeometrySource2-array" count="312">0 0 0 0 0 0 0 0 0 0 0 0 0 0 0 0 0 0 0 0 0 0 0 0 0 0 0 0 0 0 0 0 0 0 0 0 0 0 0 0 0 0 0 0 0 0 0 0 0 0 0 0 0 0 0 0 0 0 0 0 0 0 0 0 0 0 0 0 0 0 0 0 0 0 0 0 0 0 0 0 0 0 0 0 0 0 0 0 0 0 0 0 0 0 0 0 0 0 0 0 0 0 0 0 0 0 0 0 0 0 0 0 0 0 0 0 0 0 0 0 0 0 0 0 0 0 0 0 0 0 0 0 0 0 0 0 0 0 0 0 0 0 0 0 0 0 0 0 0 0 0 0 0 0 0 0 0 0 0 0 0 0 0 0 0 0 0 0 0 0 0 0 0 0 0 0 0 0 0 0 0 0 0 0 0 0 0 0 0 0 0 0 0 0 0 0 0 0 0 0 0 0 0 0 0 0 0 0 0 0 0 0 0 0 0 0 0 0 0 0 0 0 0 0 0 0 0 0 0 0 0 0 0 0 0 0 0 0 0 0 0 0 0 0 0 0 0 0 0 0 0 0 0 0 0 0 0 0 0 0 0 0 0 0 0 0 0 0 0 0 0 0 0 0 0 0 0 0 0 0 0 0 0 0 0 0 0 0 0 0 0 0 0 0 0 0 0 0 0 0 0 0 0 0 0 0 0 0 0 0 0 0</float_array>
          <technique_common>
            <accessor source="#GeometrySource2-array" count="156" stride="2">
              <param name="S" type="float"/>
              <param name="T" type="float"/>
            </accessor>
          </technique_common>
        </source>
        <vertices id="Geometry-vertices">
          <input semantic="POSITION" source="#GeometrySource"/>
          <input semantic="NORMAL" source="#GeometrySource1"/>
          <input semantic="TEXCOORD" source="#GeometrySource2"/>
        </vertices>
        <triangles material="VisualMaterial0" count="52">
          <input semantic="VERTEX" source="#Geometry-vertices" offset="0"/>
          <p>0 1 2 3 4 5 6 7 8 9 10 11 12 13 14 15 16 17 18 19 20 21 22 23 24 25 26 27 28 29 30 31 32 33 34 35 36 37 38 39 40 41 42 43 44 45 46 47 48 49 50 51 52 53 54 55 56 57 58 59 60 61 62 63 64 65 66 67 68 69 70 71 72 73 74 75 76 77 78 79 80 81 82 83 84 85 86 87 88 89 90 91 92 93 94 95 96 97 98 99 100 101 102 103 104 105 106 107 108 109 110 111 112 113 114 115 116 117 118 119 120 121 122 123 124 125 126 127 128 129 130 131 132 133 134 135 136 137 138 139 140 141 142 143 144 145 146 147 148 149 150 151 152 153 154 155</p>
        </triangles>
      </mesh>
    </geometry>
  </library_geometries>
  <library_visual_scenes>
    <visual_scene id="VisualSceneNode" name="rdmscene">
      <node id="VisualSceneNode1" name="mesh0" type="NODE">
        <matrix>1 0 0 0 0 1 0 0 0 0 1 0 0 0 0 1</matrix>
        <instance_geometry url="#Geometry">
          <bind_material>
            <technique_common>
              <instance_material symbol="VisualMaterial0" target="#VisualMaterial"/>
            </technique_common>
          </bind_material>
        </instance_geometry>
      </node>
    </visual_scene>
  </library_visual_scenes>
  <scene>
    <instance_visual_scene url="#VisualSceneNode"/>
  </scene>
</COLLADA>
