<?xml version="1.0" encoding="utf-8"?>
<COLLADA xmlns="http://www.collada.org/2005/11/COLLADASchema" version="1.4.1">
  <asset>
    <created>2026-02-02T03:28:27Z</created>
    <modified>2026-02-02T03:28:27Z</modified>
  </asset>
  <library_images>
    <image id="Image">
      <init_from>../../%C7%D7%C1%A6%BF%AC/Convert3D/data/stlmaterial</init_from>
    </image>
  </library_images>
  <library_materials>
    <material id="VisualMaterial" name="stlmaterial">
      <instance_effect url="#Effect"/>
      <extra>
        <technique profile="FCOLLADA">
          <user_properties>stlmaterial</user_properties>
        </technique>
      </extra>
    </material>
  </library_materials>
  <library_effects>
    <effect id="Effect" name="stlmaterial">
      <profile_COMMON>
        <newparam sid="Image-surface">
          <surface type="2D">
            <init_from>Image</init_from>
            <format>A8R8G8B8</format>
          </surface>
        </newparam>
        <newparam sid="Image-sampler">
          <sampler2D>
            <source>Image-surface</source>
            <wrap_s>WRAP</wrap_s>
            <wrap_t>WRAP</wrap_t>
            <minfilter>NONE</minfilter>
            <magfilter>NONE</magfilter>
            <mipfilter>NONE</mipfilter>
          </sampler2D>
        </newparam>
        <technique sid="common">
          <phong>
            <emission>
              <color>0 0 0 1</color>
            </emission>
            <ambient>
              <color>0 0 0 1</color>
            </ambient>
            <diffuse>
              <texture texture="Image-sampler" texcoord=""/>
            </diffuse>
            <specular>
              <color>1 1 1 1</color>
            </specular>
            <shininess>
              <float>0</float>
            </shininess>
            <transparent opaque="A_ONE">
              <color>0 0 0 1</color>
            </transparent>
            <transparency>
              <float>1</float>
            </transparency>
            <index_of_refraction>
              <float>1.55</float>
            </index_of_refraction>
          </phong>
          <extra>
            <technique profile="FCOLLADA">
              <spec_level>
                <float>0</float>
              </spec_level>
            </technique>
          </extra>
        </technique>
      </profile_COMMON>
      <extra>
        <technique profile="FCOLLADA">
          <user_properties>stlmaterial</user_properties>
        </technique>
      </extra>
    </effect>
  </library_effects>
  <library_geometries>
    <geometry id="Geometry" name="mesh0">
      <mesh>
        <source id="GeometrySource" name="mesh0Pos">
          <float_array id="GeometrySource-array" count="1872">499.061 -700 85.6652 499.011 -742.359 85.6712 499.21 -722.224 85.6446 499.061 -700 85.6652 499.21 -722.224 85.6446 499.322 -713.571 85.6269 499.061 -700 85.6652 499.322 -713.571 85.6269 499.442 -706.585 85.6058 499.061 -700 85.6652 499.442 -706.585 85.6058 499.538 -702.765 85.5872 499.061 -700 85.6652 499.538 -702.765 85.5872 499.611 -700.932 85.572 499.061 -700 85.6652 499.611 -700.932 85.572 499.651 -700.341 85.5634 499.061 -700 85.6652 499.651 -700.341 85.5634 499.678 -700.103 85.5573 499.061 -700 85.6652 499.678 -700.103 85.5573 499.711 -700 85.5497 498.402 -700 85.7141 498.402 -834.601 85.7141 498.653 -791.637 85.7034 498.402 -700 85.7141 498.653 -791.637 85.7034 498.879 -758.674 85.6854 498.402 -700 85.7141 498.879 -758.674 85.6854 499.011 -742.359 85.6712 498.402 -700 85.7141 499.011 -742.359 85.6712 499.061 -700 85.6652 496.279 -950 85.4108 497.046 -950 85.6039 496.839 -700 85.5614 496.839 -700 85.5614 496.082 -700 85.345 496.279 -950 85.4108 495.54 -950 85.1262 496.279 -950 85.4108 496.082 -700 85.345 496.082 -700 85.345 495.357 -700 85.039 495.54 -950 85.1262 494.842 -950 84.7542 495.54 -950 85.1262 495.357 -700 85.039 495.357 -700 85.039 494.675 -700 84.6479 494.842 -950 84.7542 494.194 -950 84.3002 494.842 -950 84.7542 494.675 -700 84.6479 494.675 -700 84.6479 494.044 -700 84.1774 494.194 -950 84.3002 493.606 -950 83.7711 494.194 -950 84.3002 494.044 -700 84.1774 494.044 -700 84.1774 493.475 -700 83.6342 493.606 -950 83.7711 493.086 -950 83.1746 493.606 -950 83.7711 493.475 -700 83.6342 493.475 -700 83.6342 492.975 -700 83.0264 493.086 -950 83.1746 492.642 -950 82.5194 493.086 -950 83.1746 492.975 -700 83.0264 492.975 -700 83.0264 492.553 -700 82.3629 492.642 -950 82.5194 492.281 -950 81.8153 492.642 -950 82.5194 492.553 -700 82.3629 492.553 -700 82.3629 492.213 -700 81.6532 492.281 -950 81.8153 492.009 -950 81.0726 492.281 -950 81.8153 492.213 -700 81.6532 492.213 -700 81.6532 491.961 -700 80.9077 492.009 -950 81.0726 491.828 -950 80.3024 492.009 -950 81.0726 491.961 -700 80.9077 491.961 -700 80.9077 491.802 -700 80.1374 491.828 -950 80.3024 491.741 -950 79.5159 491.828 -950 80.3024 491.802 -700 80.1374 491.802 -700 80.1374 491.736 -700 79.3534 491.741 -950 79.5159 491.751 -950 78.7247 491.741 -950 79.5159 491.736 -700 79.3534 491.736 -700 79.3534 491.765 -700 78.5672 491.751 -950 78.7247 491.857 -950 77.9406 491.751 -950 78.7247 491.765 -700 78.5672 491.765 -700 78.5672 491.888 -700 77.7902 491.857 -950 77.9406 492.057 -950 77.175 491.857 -950 77.9406 491.888 -700 77.7902 491.888 -700 77.7902 492.105 -700 77.0337 492.057 -950 77.175 492.348 -950 76.4393 492.057 -950 77.175 492.105 -700 77.0337 492.105 -700 77.0337 492.411 -700 76.3089 492.348 -950 76.4393 492.726 -950 75.7444 492.348 -950 76.4393 492.411 -700 76.3089 492.411 -700 76.3089 492.802 -700 75.6263 492.726 -950 75.7444 493.186 -950 75.1004 492.726 -950 75.7444 492.802 -700 75.6263 492.802 -700 75.6263 493.272 -700 74.9957 493.186 -950 75.1004 493.72 -950 74.5169 493.186 -950 75.1004 493.272 -700 74.9957 493.272 -700 74.9957 493.815 -700 74.4265 493.72 -950 74.5169 494.321 -950 74.0024 493.72 -950 74.5169 493.815 -700 74.4265 493.815 -700 74.4265 494.423 -700 73.9269 494.321 -950 74.0024 494.98 -950 73.5646 494.321 -950 74.0024 494.423 -700 73.9269 494.423 -700 73.9269 495.087 -700 73.5042 494.98 -950 73.5646 495.688 -950 73.21 494.98 -950 73.5646 495.087 -700 73.5042 495.087 -700 73.5042 495.797 -700 73.1645 495.688 -950 73.21 496.433 -950 72.9436 495.688 -950 73.21 495.797 -700 73.1645 495.797 -700 73.1645 496.542 -700 72.9129 496.433 -950 72.9436 498.096 -700.35 72.6871 498.083 -700.398 72.6874 498.096 -700 72.6871 497.204 -950 72.7696 496.433 -950 72.9436 496.542 -700 72.9129 497.204 -950 72.7696 496.542 -700 72.9129 497.312 -700 72.753 497.204 -950 72.7696 497.312 -700 72.753 497.412 -855.418 72.7393 497.616 -700 85.6851 496.839 -700 85.5614 497.046 -950 85.6039 497.616 -700 85.6851 497.046 -950 85.6039 497.831 -950 85.7025 497.616 -700 85.6851 497.831 -950 85.7025 498.034 -906.635 85.7124 497.616 -700 85.6851 498.034 -906.635 85.7124 498.402 -834.601 85.7141 497.616 -700 85.6851 498.402 -834.601 85.7141 498.402 -700 85.7141 497.312 -700 72.753 498.096 -700 72.6871 498.083 -700.398 72.6874 497.312 -700 72.753 498.083 -700.398 72.6874 498.078 -700.468 72.6876 497.312 -700 72.753 498.078 -700.468 72.6876 498.058 -700.884 72.6881 497.312 -700 72.753 498.058 -700.884 72.6881 498.018 -702.577 72.6894 497.312 -700 72.753 498.018 -702.577 72.6894 497.962 -706.798 72.6916 497.312 -700 72.753 497.962 -706.798 72.6916 497.891 -715.427 72.6951 497.312 -700 72.753 497.891 -715.427 72.6951 497.819 -727.669 72.6995 497.312 -700 72.753 497.819 -727.669 72.6995 497.712 -752.152 72.7075 497.312 -700 72.753 497.712 -752.152 72.7075 497.566 -796.679 72.7213 497.312 -700 72.753 497.566 -796.679 72.7213 497.412 -855.418 72.7393 497.204 -950 72.7696 497.412 -855.418 72.7393 505.699 -950 72.559 518.277 -825 72.2273 497.566 -796.679 72.7213 497.712 -752.152 72.7075 518.277 -825 72.2273 497.712 -752.152 72.7075 497.819 -727.669 72.6995 518.277 -825 72.2273 497.819 -727.669 72.6995 497.891 -715.427 72.6951 518.277 -825 72.2273 497.891 -715.427 72.6951 497.962 -706.798 72.6916 518.277 -825 72.2273 497.962 -706.798 72.6916 498.018 -702.577 72.6894 518.277 -825 72.2273 498.018 -702.577 72.6894 498.058 -700.884 72.6881 518.277 -825 72.2273 498.058 -700.884 72.6881 498.078 -700.468 72.6876 518.277 -825 72.2273 498.078 -700.468 72.6876 498.083 -700.398 72.6874 518.277 -825 72.2273 498.083 -700.398 72.6874 498.096 -700.35 72.6871 518.277 -825 72.2273 498.096 -700.35 72.6871 498.096 -700 72.6871 518.277 -825 72.2273 498.096 -700 72.6871 519.973 -700 72.1715 518.277 -825 72.2273 519.973 -700 72.1715 541.354 -700 71.6622 518.277 -825 72.2273 541.354 -700 71.6622 541.354 -825 71.6622 518.277 -825 72.2273 541.354 -825 71.6622 541.354 -950 71.6622 518.277 -825 72.2273 541.354 -950 71.6622 505.699 -950 72.559 518.277 -825 72.2273 505.699 -950 72.559 497.412 -855.418 72.7393 518.277 -825 72.2273 497.412 -855.418 72.7393 497.566 -796.679 72.7213 497.312 -700 72.753 519.973 -700 72.1715 498.096 -700 72.6871 541.511 -700 74.658 541.354 -700 71.6622 493.815 -700 74.4265 541.511 -700 74.658 493.815 -700 74.4265 493.272 -700 74.9957 541.511 -700 74.658 493.272 -700 74.9957 492.802 -700 75.6263 541.511 -700 74.658 492.802 -700 75.6263 537.078 -700 75.918 541.354 -700 71.6622 519.973 -700 72.1715 497.312 -700 72.753 541.354 -700 71.6622 497.312 -700 72.753 496.542 -700 72.9129 541.354 -700 71.6622 496.542 -700 72.9129 495.797 -700 73.1645 541.354 -700 71.6622 495.797 -700 73.1645 495.087 -700 73.5042 541.354 -700 71.6622 495.087 -700 73.5042 494.423 -700 73.9269 541.354 -700 71.6622 494.423 -700 73.9269 493.815 -700 74.4265 498.402 -700 85.7141 499.061 -700 85.6652 497.616 -700 85.6851 497.616 -700 85.6851 499.061 -700 85.6652 499.711 -700 85.5497 497.616 -700 85.6851 499.711 -700 85.5497 496.839 -700 85.5614 496.839 -700 85.5614 499.711 -700 85.5497 502.937 -700 84.7989 496.839 -700 85.5614 502.937 -700 84.7989 496.082 -700 85.345 496.082 -700 85.345 502.937 -700 84.7989 494.675 -700 84.6479 496.082 -700 85.345 494.675 -700 84.6479 495.357 -700 85.039 492.975 -700 83.0264 493.475 -700 83.6342 509.377 -700 83.252 509.377 -700 83.252 493.475 -700 83.6342 494.044 -700 84.1774 509.377 -700 83.252 494.044 -700 84.1774 506.159 -700 84.0329 506.159 -700 84.0329 494.044 -700 84.1774 494.675 -700 84.6479 506.159 -700 84.0329 494.675 -700 84.6479 502.937 -700 84.7989 491.765 -700 78.5672 491.736 -700 79.3534 526.529 -700 78.8367 526.529 -700 78.8367 491.736 -700 79.3534 491.802 -700 80.1374 526.529 -700 78.8367 491.802 -700 80.1374 522.773 -700 79.8388 522.773 -700 79.8388 491.802 -700 80.1374 491.961 -700 80.9077 522.773 -700 79.8388 491.961 -700 80.9077 519.011 -700 80.8225 519.011 -700 80.8225 491.961 -700 80.9077 492.213 -700 81.6532 519.011 -700 80.8225 492.213 -700 81.6532 515.803 -700 81.6463 515.803 -700 81.6463 492.213 -700 81.6532 492.553 -700 82.3629 515.803 -700 81.6463 492.553 -700 82.3629 512.592 -700 82.4563 512.592 -700 82.4563 492.553 -700 82.3629 492.975 -700 83.0264 512.592 -700 82.4563 492.975 -700 83.0264 509.377 -700 83.252 531.531 -700 77.4713 491.765 -700 78.5672 526.529 -700 78.8367 491.765 -700 78.5672 531.531 -700 77.4713 491.888 -700 77.7902 491.888 -700 77.7902 531.531 -700 77.4713 537.078 -700 75.918 491.888 -700 77.7902 537.078 -700 75.918 492.105 -700 77.0337 492.105 -700 77.0337 537.078 -700 75.918 492.802 -700 75.6263 492.105 -700 77.0337 492.802 -700 75.6263 492.411 -700 76.3089 502.381 -950 84.7034 506.61 -950 83.741 499.711 -700 85.5497 502.381 -950 84.7034 499.711 -700 85.5497 499.678 -700.103 85.5573 502.381 -950 84.7034 499.678 -700.103 85.5573 499.651 -700.341 85.5634 502.381 -950 84.7034 499.651 -700.341 85.5634 499.611 -700.932 85.572 502.381 -950 84.7034 499.611 -700.932 85.572 499.538 -702.765 85.5872 502.381 -950 84.7034 499.538 -702.765 85.5872 499.442 -706.585 85.6058 502.381 -950 84.7034 499.442 -706.585 85.6058 499.322 -713.571 85.6269 502.381 -950 84.7034 499.322 -713.571 85.6269 499.21 -722.224 85.6446 502.381 -950 84.7034 499.21 -722.224 85.6446 499.011 -742.359 85.6712 502.381 -950 84.7034 499.011 -742.359 85.6712 498.879 -758.674 85.6854 502.381 -950 84.7034 498.879 -758.674 85.6854 498.653 -791.637 85.7034 502.381 -950 84.7034 498.653 -791.637 85.7034 498.402 -834.601 85.7141 502.381 -950 84.7034 498.402 -834.601 85.7141 498.034 -906.635 85.7124 502.381 -950 84.7034 498.034 -906.635 85.7124 497.831 -950 85.7025 541.511 -950 74.658 541.511 -700 74.658 535.733 -950 76.2869 535.733 -950 76.2869 541.511 -700 74.658 537.078 -700 75.918 535.733 -950 76.2869 537.078 -700 75.918 532.848 -950 77.0866 532.848 -950 77.0866 537.078 -700 75.918 531.531 -700 77.4713 532.848 -950 77.0866 531.531 -700 77.4713 528.517 -950 78.2626 528.517 -950 78.2626 531.531 -700 77.4713 526.529 -700 78.8367 528.517 -950 78.2626 526.529 -700 78.8367 525.258 -950 79.1269 525.258 -950 79.1269 526.529 -700 78.8367 522.773 -700 79.8388 525.258 -950 79.1269 522.773 -700 79.8388 521.989 -950 79.9772 521.989 -950 79.9772 522.773 -700 79.8388 519.011 -700 80.8225 521.989 -950 79.9772 519.011 -700 80.8225 518.421 -950 80.886 518.421 -950 80.886 519.011 -700 80.8225 515.803 -700 81.6463 518.421 -950 80.886 515.803 -700 81.6463 515.473 -950 81.6211 515.473 -950 81.6211 515.803 -700 81.6463 512.592 -700 82.4563 515.473 -950 81.6211 512.592 -700 82.4563 512.522 -950 82.3421 512.522 -950 82.3421 512.592 -700 82.4563 509.377 -700 83.252 512.522 -950 82.3421 509.377 -700 83.252 509.568 -950 83.0489 509.568 -950 83.0489 509.377 -700 83.252 506.159 -700 84.0329 509.568 -950 83.0489 506.159 -700 84.0329 506.61 -950 83.741 506.61 -950 83.741 506.159 -700 84.0329 502.937 -700 84.7989 506.61 -950 83.741 502.937 -700 84.7989 499.711 -700 85.5497 494.194 -950 84.3002 493.606 -950 83.7711 506.61 -950 83.741 505.699 -950 72.559 496.433 -950 72.9436 497.204 -950 72.7696 502.381 -950 84.7034 497.831 -950 85.7025 497.046 -950 85.6039 502.381 -950 84.7034 497.046 -950 85.6039 496.279 -950 85.4108 502.381 -950 84.7034 496.279 -950 85.4108 495.54 -950 85.1262 502.381 -950 84.7034 495.54 -950 85.1262 494.842 -950 84.7542 502.381 -950 84.7034 494.842 -950 84.7542 494.194 -950 84.3002 502.381 -950 84.7034 494.194 -950 84.3002 506.61 -950 83.741 541.354 -950 71.6622 541.511 -950 74.658 493.72 -950 74.5169 541.354 -950 71.6622 493.72 -950 74.5169 494.321 -950 74.0024 541.354 -950 71.6622 494.321 -950 74.0024 494.98 -950 73.5646 541.354 -950 71.6622 494.98 -950 73.5646 495.688 -950 73.21 541.354 -950 71.6622 495.688 -950 73.21 496.433 -950 72.9436 541.354 -950 71.6622 496.433 -950 72.9436 505.699 -950 72.559 491.857 -950 77.9406 528.517 -950 78.2626 491.751 -950 78.7247 491.751 -950 78.7247 528.517 -950 78.2626 525.258 -950 79.1269 491.751 -950 78.7247 525.258 -950 79.1269 491.741 -950 79.5159 491.741 -950 79.5159 525.258 -950 79.1269 521.989 -950 79.9772 491.741 -950 79.5159 521.989 -950 79.9772 491.828 -950 80.3024 491.828 -950 80.3024 521.989 -950 79.9772 518.421 -950 80.886 491.828 -950 80.3024 518.421 -950 80.886 492.009 -950 81.0726 492.009 -950 81.0726 518.421 -950 80.886 515.473 -950 81.6211 492.009 -950 81.0726 515.473 -950 81.6211 492.281 -950 81.8153 492.281 -950 81.8153 515.473 -950 81.6211 512.522 -950 82.3421 492.281 -950 81.8153 512.522 -950 82.3421 492.642 -950 82.5194 492.642 -950 82.5194 512.522 -950 82.3421 509.568 -950 83.0489 492.642 -950 82.5194 509.568 -950 83.0489 493.086 -950 83.1746 493.086 -950 83.1746 509.568 -950 83.0489 506.61 -950 83.741 493.086 -950 83.1746 506.61 -950 83.741 493.606 -950 83.7711 492.348 -950 76.4393 532.848 -950 77.0866 492.057 -950 77.175 492.057 -950 77.175 532.848 -950 77.0866 528.517 -950 78.2626 492.057 -950 77.175 528.517 -950 78.2626 491.857 -950 77.9406 532.848 -950 77.0866 492.348 -950 76.4393 535.733 -950 76.2869 535.733 -950 76.2869 492.348 -950 76.4393 492.726 -950 75.7444 535.733 -950 76.2869 492.726 -950 75.7444 541.511 -950 74.658 541.511 -950 74.658 492.726 -950 75.7444 493.186 -950 75.1004 541.511 -950 74.658 493.186 -950 75.1004 493.72 -950 74.5169 541.354 -950 71.6622 541.354 -825 71.6622 541.511 -950 74.658 541.511 -950 74.658 541.354 -825 71.6622 541.354 -700 71.6622 541.511 -950 74.658 541.354 -700 71.6622 541.511 -700 74.658</float_array>
          <technique_common>
            <accessor source="#GeometrySource-array" count="624" stride="3">
              <param name="X" type="float"/>
              <param name="Y" type="float"/>
              <param name="Z" type="float"/>
            </accessor>
          </technique_common>
        </source>
        <source id="GeometrySource1" name="mesh0Nrm">
          <float_array id="GeometrySource1-array" count="1872">0.133791 -0.000015 0.99101 0.133791 -0.000015 0.99101 0.133791 -0.000015 0.99101 0.149331 0.00009 0.988787 0.149331 0.00009 0.988787 0.149331 0.00009 0.988787 0.158523 0.000272 0.987355 0.158523 0.000272 0.987355 0.158523 0.000272 0.987355 0.165004 0.000656 0.986293 0.165004 0.000656 0.986293 0.165004 0.000656 0.986293 0.169293 0.001417 0.985565 0.169293 0.001417 0.985565 0.169293 0.001417 0.985565 0.171603 0.002821 0.985162 0.171603 0.002821 0.985162 0.171603 0.002821 0.985162 0.173035 0.005373 0.984901 0.173035 0.005373 0.984901 0.173035 0.005373 0.984901 0.174687 0.015717 0.984499 0.174687 0.015717 0.984499 0.174687 0.015717 0.984499 0.04273 0 0.999087 0.04273 0 0.999087 0.04273 0 0.999087 0.068946 0.000071 0.99762 0.068946 0.000071 0.99762 0.068946 0.000071 0.99762 0.083437 0.00019 0.996513 0.083437 0.00019 0.996513 0.083437 0.00019 0.996513 0.074107 0.000055 0.99725 0.074107 0.000055 0.99725 0.074107 0.000055 0.99725 -0.243987 -0.000037 0.969778 -0.243987 -0.000037 0.969778 -0.243987 -0.000037 0.969778 -0.275046 0.000036 0.961431 -0.275046 0.000036 0.961431 -0.275046 0.000036 0.961431 -0.359731 -0.000037 0.933056 -0.359731 -0.000037 0.933056 -0.359731 -0.000037 0.933056 -0.388924 0.000036 0.92127 -0.388924 0.000036 0.92127 -0.388924 0.000036 0.92127 -0.470198 -0.000036 0.882561 -0.470198 -0.000036 0.882561 -0.470198 -0.000036 0.882561 -0.497115 0.000035 0.867685 -0.497115 0.000035 0.867685 -0.497115 0.000035 0.867685 -0.573739 -0.000036 0.819038 -0.573739 -0.000036 0.819038 -0.573739 -0.000036 0.819038 -0.598099 0.000035 0.801422 -0.598099 0.000035 0.801422 -0.598099 0.000035 0.801422 -0.668735 -0.000035 0.743501 -0.668735 -0.000035 0.743501 -0.668735 -0.000035 0.743501 -0.690296 0.000034 0.723527 -0.690296 0.000034 0.723527 -0.690296 0.000034 0.723527 -0.753929 -0.000035 0.656956 -0.753929 -0.000035 0.656956 -0.753929 -0.000035 0.656956 -0.772509 0.000034 0.635004 -0.772509 0.000034 0.635004 -0.772509 0.000034 0.635004 -0.828041 -0.000034 0.560667 -0.828041 -0.000034 0.560667 -0.828041 -0.000034 0.560667 -0.843417 0.000033 0.537259 -0.843417 0.000033 0.537259 -0.843417 0.000033 0.537259 -0.889859 -0.000033 0.456235 -0.889859 -0.000033 0.456235 -0.889859 -0.000033 0.456235 -0.902041 0.000033 0.43165 -0.902041 0.000033 0.43165 -0.902041 0.000033 0.43165 -0.938639 -0.000033 0.3449 -0.938639 -0.000033 0.3449 -0.938639 -0.000033 0.3449 -0.947482 0.000032 0.31981 -0.947482 0.000032 0.31981 -0.947482 0.000032 0.31981 -0.973509 -0.000032 0.228648 -0.973509 -0.000032 0.228648 -0.973509 -0.000032 0.228648 -0.979134 0.000031 0.203216 -0.979134 0.000031 0.203216 -0.979134 0.000031 0.203216 -0.994046 -0.000031 0.108961 -0.994046 -0.000031 0.108961 -0.994046 -0.000031 0.108961 -0.996484 0.000031 0.083783 -0.996484 0.000031 0.083783 -0.996484 0.000031 0.083783 -0.999923 -0.000031 -0.012381 -0.999923 -0.000031 -0.012381 -0.999923 -0.000031 -0.012381 -0.999321 0.00003 -0.036849 -0.999321 0.00003 -0.036849 -0.999321 0.00003 -0.036849 -0.99105 -0.000031 -0.133491 -0.99105 -0.000031 -0.133491 -0.99105 -0.000031 -0.133491 -0.987559 0.000029 -0.157246 -0.987559 0.000029 -0.157246 -0.987559 0.000029 -0.157246 -0.96759 -0.00003 -0.252526 -0.96759 -0.00003 -0.252526 -0.96759 -0.00003 -0.252526 -0.961462 0.000029 -0.274939 -0.961462 0.000029 -0.274939 -0.961462 0.000029 -0.274939 -0.929811 -0.000029 -0.368037 -0.929811 -0.000029 -0.368037 -0.929811 -0.000029 -0.368037 -0.921268 0.000028 -0.388929 -0.921268 0.000028 -0.388929 -0.921268 0.000028 -0.388929 -0.878357 -0.000028 -0.478005 -0.878357 -0.000028 -0.478005 -0.878357 -0.000028 -0.478005 -0.867648 0.000028 -0.497179 -0.867648 0.000028 -0.497179 -0.867648 0.000028 -0.497179 -0.81391 -0.000027 -0.580991 -0.81391 -0.000027 -0.580991 -0.81391 -0.000027 -0.580991 -0.801459 0.000027 -0.598049 -0.801459 0.000027 -0.598049 -0.801459 0.000027 -0.598049 -0.737477 -0.000027 -0.675372 -0.737477 -0.000027 -0.675372 -0.737477 -0.000027 -0.675372 -0.723456 0.000026 -0.690371 -0.723456 0.000026 -0.690371 -0.723456 0.000026 -0.690371 -0.650221 -0.000026 -0.759745 -0.650221 -0.000026 -0.759745 -0.650221 -0.000026 -0.759745 -0.635061 0.000025 -0.772462 -0.635061 0.000025 -0.772462 -0.635061 0.000025 -0.772462 -0.553298 -0.000025 -0.832984 -0.553298 -0.000025 -0.832984 -0.553298 -0.000025 -0.832984 -0.537242 0.000024 -0.843428 -0.537242 0.000024 -0.843428 -0.537242 0.000024 -0.843428 -0.448239 -0.000025 -0.893914 -0.448239 -0.000025 -0.893914 -0.448239 -0.000025 -0.893914 -0.431671 0.000024 -0.902031 -0.431671 0.000024 -0.902031 -0.431671 0.000024 -0.902031 -0.336616 -0.000024 -0.941642 -0.336616 -0.000024 -0.941642 -0.336616 -0.000024 -0.941642 -0.319824 0.000023 -0.947477 -0.319824 0.000023 -0.947477 -0.319824 0.000023 -0.947477 -0.023249 0 -0.99973 -0.023249 0 -0.99973 -0.023249 0 -0.99973 -0.219981 -0.000023 -0.975504 -0.219981 -0.000023 -0.975504 -0.219981 -0.000023 -0.975504 -0.20327 0.000022 -0.979123 -0.20327 0.000022 -0.979123 -0.20327 0.000022 -0.979123 -0.142541 -0.000004 -0.989789 -0.142541 -0.000004 -0.989789 -0.142541 -0.000004 -0.989789 -0.157139 0.000037 0.987577 -0.157139 0.000037 0.987577 -0.157139 0.000037 0.987577 -0.124657 -0.000038 0.9922 -0.124657 -0.000038 0.9922 -0.124657 -0.000038 0.9922 -0.053536 0.000023 0.998566 -0.053536 0.000023 0.998566 -0.053536 0.000023 0.998566 -0.021938 0.000087 0.999759 -0.021938 0.000087 0.999759 -0.021938 0.000087 0.999759 -0.036953 0 0.999317 -0.036953 0 0.999317 -0.036953 0 0.999317 -0.083751 0.001999 -0.996485 -0.083751 0.001999 -0.996485 -0.083751 0.001999 -0.996485 -0.082805 0.003846 -0.996558 -0.082805 0.003846 -0.996558 -0.082805 0.003846 -0.996558 -0.083503 0.002696 -0.996504 -0.083503 0.002696 -0.996504 -0.083503 0.002696 -0.996504 -0.085186 0.001265 -0.996364 -0.085186 0.001265 -0.996364 -0.085186 0.001265 -0.996364 -0.08749 0.000629 -0.996165 -0.08749 0.000629 -0.996165 -0.08749 0.000629 -0.996165 -0.090491 0.000339 -0.995897 -0.090491 0.000339 -0.995897 -0.090491 0.000339 -0.995897 -0.094203 0.000199 -0.995553 -0.094203 0.000199 -0.995553 -0.094203 0.000199 -0.995553 -0.099088 0.000109 -0.995079 -0.099088 0.000109 -0.995079 -0.099088 0.000109 -0.995079 -0.107313 0.000045 -0.994225 -0.107313 0.000045 -0.994225 -0.107313 0.000045 -0.994225 -0.120516 0.00001 -0.992711 -0.120516 0.00001 -0.992711 -0.120516 0.00001 -0.992711 -0.024786 -0.000265 -0.999693 -0.024786 -0.000265 -0.999693 -0.024786 -0.000265 -0.999693 -0.024157 -0.000229 -0.999708 -0.024157 -0.000229 -0.999708 -0.024157 -0.000229 -0.999708 -0.024124 -0.00022 -0.999709 -0.024124 -0.00022 -0.999709 -0.024124 -0.00022 -0.999709 -0.024099 -0.000215 -0.99971 -0.024099 -0.000215 -0.99971 -0.024099 -0.000215 -0.99971 -0.024077 -0.00021 -0.99971 -0.024077 -0.00021 -0.99971 -0.024077 -0.00021 -0.99971 -0.024035 -0.000203 -0.999711 -0.024035 -0.000203 -0.999711 -0.024035 -0.000203 -0.999711 -0.023998 -0.000197 -0.999712 -0.023998 -0.000197 -0.999712 -0.023998 -0.000197 -0.999712 -0.023852 -0.000173 -0.999716 -0.023852 -0.000173 -0.999716 -0.023852 -0.000173 -0.999716 -0.024665 -0.000305 -0.999696 -0.024665 -0.000305 -0.999696 -0.024665 -0.000305 -0.999696 -0.023074 -0.000047 -0.999734 -0.023074 -0.000047 -0.999734 -0.023074 -0.000047 -0.999734 -0.022779 0 -0.999741 -0.022779 0 -0.999741 -0.022779 0 -0.999741 -0.023563 -0.000126 -0.999722 -0.023563 -0.000126 -0.999722 -0.023563 -0.000126 -0.999722 -0.023813 -0.000123 -0.999716 -0.023813 -0.000123 -0.999716 -0.023813 -0.000123 -0.999716 -0.02448 0 -0.9997 -0.02448 0 -0.9997 -0.02448 0 -0.9997 -0.02448 0 -0.9997 -0.02448 0 -0.9997 -0.02448 0 -0.9997 -0.025144 -0.000122 -0.999684 -0.025144 -0.000122 -0.999684 -0.025144 -0.000122 -0.999684 -0.024217 -0.000215 -0.999707 -0.024217 -0.000215 -0.999707 -0.024217 -0.000215 -0.999707 -0.024176 -0.000244 -0.999708 -0.024176 -0.000244 -0.999708 -0.024176 -0.000244 -0.999708 0 1 0 0 1 0 0 1 0 0 1 0 0 1 0 0 1 0 0 1 0 0 1 0 0 1 0 0 1 0 0 1 0 0 1 0 0 1 0 0 1 0 0 1 0 0 1 0 0 1 0 0 1 0 0 1 0 0 1 0 0 1 0 0 1 0 0 1 0 0 1 0 0 1 0 0 1 0 0 1 0 0 1 0 0 1 0 0 1 0 0 1 0 0 1 0 0 1 0 0 1 0 0 1 0 0 1 0 0 1 0 0 1 0 0 1 0 0 1 0 0 1 0 0 1 0 0 1 0 0 1 0 0 1 0 0 1 0 0 1 0 0 1 0 0 1 0 0 1 0 0 1 0 0 1 0 0 1 0 0 1 0 0 1 0 0 1 0 0 1 0 0 1 0 0 1 0 0 1 0 0 1 0 0 1 0 0 1 0 0 1 0 0 1 0 0 1 0 0 1 0 0 1 0 0 1 0 0 1 0 0 1 0 0 1 0 0 1 0 0 1 0 0 1 0 0 1 0 0 1 0 0 1 0 0 1 0 0 1 0 0 1 0 0 1 0 0 1 0 0 1 0 0 1 0 0 1 0 0 1 0 0 1 0 0 1 0 0 1 0 0 1 0 0 1 0 0 1 0 0 1 0 0 1 0 0 1 0 0 1 0 0 1 0 0 1 0 0 1 0 0 1 0 0 1 0 0 1 0 0 1 0 0 1 0 0 1 0 0 1 0 0 1 0 0 1 0 0 1 0 0 1 0 0 1 0 0 1 0 0 1 0 0 1 0 0 1 0 0 1 0 0 1 0 0 1 0 0 1 0 0.221914 -0.00093 0.975066 0.221914 -0.00093 0.975066 0.221914 -0.00093 0.975066 0.22371 -0.00091 0.974655 0.22371 -0.00091 0.974655 0.22371 -0.00091 0.974655 0.225469 -0.000889 0.97425 0.225469 -0.000889 0.97425 0.225469 -0.000889 0.97425 0.224597 -0.0009 0.974451 0.224597 -0.0009 0.974451 0.224597 -0.0009 0.974451 0.224863 -0.000897 0.97439 0.224863 -0.000897 0.97439 0.224863 -0.000897 0.97439 0.224805 -0.000897 0.974403 0.224805 -0.000897 0.974403 0.224805 -0.000897 0.974403 0.224638 -0.000899 0.974442 0.224638 -0.000899 0.974442 0.224638 -0.000899 0.974442 0.224118 -0.000907 0.974562 0.224118 -0.000907 0.974562 0.224118 -0.000907 0.974562 0.223105 -0.000922 0.974794 0.223105 -0.000922 0.974794 0.223105 -0.000922 0.974794 0.221781 -0.000945 0.975096 0.221781 -0.000945 0.975096 0.221781 -0.000945 0.975096 0.22017 -0.000976 0.975461 0.22017 -0.000976 0.975461 0.22017 -0.000976 0.975461 0.217996 -0.00103 0.975949 0.217996 -0.00103 0.975949 0.217996 -0.00103 0.975949 0.215473 -0.001122 0.976509 0.215473 -0.001122 0.976509 0.215473 -0.001122 0.976509 0.214462 -0.001229 0.976732 0.214462 -0.001229 0.976732 0.214462 -0.001229 0.976732 0.271342 0 0.962483 0.271342 0 0.962483 0.271342 0 0.962483 0.273405 -0.000051 0.961899 0.273405 -0.000051 0.961899 0.273405 -0.000051 0.961899 0.26714 -0.000015 0.963658 0.26714 -0.000015 0.963658 0.26714 -0.000015 0.963658 0.269645 -0.00006 0.96296 0.269645 -0.00006 0.96296 0.269645 -0.00006 0.96296 0.262018 -0.000104 0.965063 0.262018 -0.000104 0.965063 0.262018 -0.000104 0.965063 0.263382 -0.000121 0.964692 0.263382 -0.000121 0.964692 0.263382 -0.000121 0.964692 0.256386 -0.000181 0.966575 0.256386 -0.000181 0.966575 0.256386 -0.000181 0.966575 0.257714 -0.000188 0.966221 0.257714 -0.000188 0.966221 0.257714 -0.000188 0.966221 0.251687 -0.000253 0.967809 0.251687 -0.000253 0.967809 0.251687 -0.000253 0.967809 0.252988 -0.000257 0.967469 0.252988 -0.000257 0.967469 0.252988 -0.000257 0.967469 0.246845 -0.000336 0.969055 0.246845 -0.000336 0.969055 0.246845 -0.000336 0.969055 0.248727 -0.00034 0.968574 0.248727 -0.00034 0.968574 0.248727 -0.00034 0.968574 0.241978 -0.000416 0.970282 0.241978 -0.000416 0.970282 0.241978 -0.000416 0.970282 0.244584 -0.00042 0.969628 0.244584 -0.00042 0.969628 0.244584 -0.00042 0.969628 0.237349 -0.000509 0.971424 0.237349 -0.000509 0.971424 0.237349 -0.000509 0.971424 0.240263 -0.000509 0.970708 0.240263 -0.000509 0.970708 0.240263 -0.000509 0.970708 0.232633 -0.000612 0.972564 0.232633 -0.000612 0.972564 0.232633 -0.000612 0.972564 0.235806 -0.000609 0.9718 0.235806 -0.000609 0.9718 0.235806 -0.000609 0.9718 0.227848 -0.000725 0.973696 0.227848 -0.000725 0.973696 0.227848 -0.000725 0.973696 0.231301 -0.000718 0.972882 0.231301 -0.000718 0.972882 0.231301 -0.000718 0.972882 0.226723 -0.00079 0.973959 0.226723 -0.00079 0.973959 0.226723 -0.00079 0.973959 0 -1 0 0 -1 0 0 -1 0 0 -1 0 0 -1 0 0 -1 0 0 -1 0 0 -1 0 0 -1 0 0 -1 0 0 -1 0 0 -1 0 0 -1 0 0 -1 0 0 -1 0 0 -1 0 0 -1 0 0 -1 0 0 -1 0 0 -1 0 0 -1 0 0 -1 0 0 -1 0 0 -1 0 0 -1 0 0 -1 0 0 -1 0 0 -1 0 0 -1 0 0 -1 0 0 -1 0 0 -1 0 0 -1 0 0 -1 0 0 -1 0 0 -1 0 0 -1 0 0 -1 0 0 -1 0 0 -1 0 0 -1 0 0 -1 0 0 -1 0 0 -1 0 0 -1 0 0 -1 0 0 -1 0 0 -1 0 0 -1 0 0 -1 0 0 -1 0 0 -1 0 0 -1 0 0 -1 0 0 -1 0 0 -1 0 0 -1 0 0 -1 0 0 -1 0 0 -1 0 0 -1 0 0 -1 0 0 -1 0 0 -1 0 0 -1 0 0 -1 0 0 -1 0 0 -1 0 0 -1 0 0 -1 0 0 -1 0 0 -1 0 0 -1 0 0 -1 0 0 -1 0 0 -1 0 0 -1 0 0 -1 0 0 -1 0 0 -1 0 0 -1 0 0 -1 0 0 -1 0 0 -1 0 0 -1 0 0 -1 0 0 -1 0 0 -1 0 0 -1 0 0 -1 0 0 -1 0 0 -1 0 0 -1 0 0 -1 0 0 -1 0 0 -1 0 0 -1 0 0 -1 0 0 -1 0 0 -1 0 0 -1 0 0 -1 0 0 -1 0 0 -1 0 0 -1 0 0 -1 0 0 -1 0 0 -1 0 0 -1 0 0 -1 0 0 -1 0 0.998632 0 -0.052287 0.998632 0 -0.052287 0.998632 0 -0.052287 0.998632 0 -0.052287 0.998632 0 -0.052287 0.998632 0 -0.052287 0.998632 0 -0.052287 0.998632 0 -0.052287 0.998632 0 -0.052287</float_array>
          <technique_common>
            <accessor source="#GeometrySource1-array" count="624" stride="3">
              <param name="X" type="float"/>
              <param name="Y" type="float"/>
              <param name="Z" type="float"/>
            </accessor>
          </technique_common>
        </source>
        <source id="GeometrySource2" name="mesh0UV">
          <float_array id="GeometrySource2-array" count="1248">0 0 0 0 0 0 0 0 0 0 0 0 0 0 0 0 0 0 0 0 0 0 0 0 0 0 0 0 0 0 0 0 0 0 0 0 0 0 0 0 0 0 0 0 0 0 0 0 0 0 0 0 0 0 0 0 0 0 0 0 0 0 0 0 0 0 0 0 0 0 0 0 0 0 0 0 0 0 0 0 0 0 0 0 0 0 0 0 0 0 0 0 0 0 0 0 0 0 0 0 0 0 0 0 0 0 0 0 0 0 0 0 0 0 0 0 0 0 0 0 0 0 0 0 0 0 0 0 0 0 0 0 0 0 0 0 0 0 0 0 0 0 0 0 0 0 0 0 0 0 0 0 0 0 0 0 0 0 0 0 0 0 0 0 0 0 0 0 0 0 0 0 0 0 0 0 0 0 0 0 0 0 0 0 0 0 0 0 0 0 0 0 0 0 0 0 0 0 0 0 0 0 0 0 0 0 0 0 0 0 0 0 0 0 0 0 0 0 0 0 0 0 0 0 0 0 0 0 0 0 0 0 0 0 0 0 0 0 0 0 0 0 0 0 0 0 0 0 0 0 0 0 0 0 0 0 0 0 0 0 0 0 0 0 0 0 0 0 0 0 0 0 0 0 0 0 0 0 0 0 0 0 0 0 0 0 0 0 0 0 0 0 0 0 0 0 0 0 0 0 0 0 0 0 0 0 0 0 0 0 0 0 0 0 0 0 0 0 0 0 0 0 0 0 0 0 0 0 0 0 0 0 0 0 0 0 0 0 0 0 0 0 0 0 0 0 0 0 0 0 0 0 0 0 0 0 0 0 0 0 0 0 0 0 0 0 0 0 0 0 0 0 0 0 0 0 0 0 0 0 0 0 0 0 0 0 0 0 0 0 0 0 0 0 0 0 0 0 0 0 0 0 0 0 0 0 0 0 0 0 0 0 0 0 0 0 0 0 0 0 0 0 0 0 0 0 0 0 0 0 0 0 0 0 0 0 0 0 0 0 0 0 0 0 0 0 0 0 0 0 0 0 0 0 0 0 0 0 0 0 0 0 0 0 0 0 0 0 0 0 0 0 0 0 0 0 0 0 0 0 0 0 0 0 0 0 0 0 0 0 0 0 0 0 0 0 0 0 0 0 0 0 0 0 0 0 0 0 0 0 0 0 0 0 0 0 0 0 0 0 0 0 0 0 0 0 0 0 0 0 0 0 0 0 0 0 0 0 0 0 0 0 0 0 0 0 0 0 0 0 0 0 0 0 0 0 0 0 0 0 0 0 0 0 0 0 0 0 0 0 0 0 0 0 0 0 0 0 0 0 0 0 0 0 0 0 0 0 0 0 0 0 0 0 0 0 0 0 0 0 0 0 0 0 0 0 0 0 0 0 0 0 0 0 0 0 0 0 0 0 0 0 0 0 0 0 0 0 0 0 0 0 0 0 0 0 0 0 0 0 0 0 0 0 0 0 0 0 0 0 0 0 0 0 0 0 0 0 0 0 0 0 0 0 0 0 0 0 0 0 0 0 0 0 0 0 0 0 0 0 0 0 0 0 0 0 0 0 0 0 0 0 0 0 0 0 0 0 0 0 0 0 0 0 0 0 0 0 0 0 0 0 0 0 0 0 0 0 0 0 0 0 0 0 0 0 0 0 0 0 0 0 0 0 0 0 0 0 0 0 0 0 0 0 0 0 0 0 0 0 0 0 0 0 0 0 0 0 0 0 0 0 0 0 0 0 0 0 0 0 0 0 0 0 0 0 0 0 0 0 0 0 0 0 0 0 0 0 0 0 0 0 0 0 0 0 0 0 0 0 0 0 0 0 0 0 0 0 0 0 0 0 0 0 0 0 0 0 0 0 0 0 0 0 0 0 0 0 0 0 0 0 0 0 0 0 0 0 0 0 0 0 0 0 0 0 0 0 0 0 0 0 0 0 0 0 0 0 0 0 0 0 0 0 0 0 0 0 0 0 0 0 0 0 0 0 0 0 0 0 0 0 0 0 0 0 0 0 0 0 0 0 0 0 0 0 0 0 0 0 0 0 0 0 0 0 0 0 0 0 0 0 0 0 0 0 0 0 0 0 0 0 0 0 0 0 0 0 0 0 0 0 0 0 0 0 0 0 0 0 0 0 0 0 0 0 0 0 0 0 0 0 0 0 0 0 0 0 0 0 0 0 0 0 0 0 0 0 0 0 0 0 0 0 0 0 0 0 0 0 0 0 0 0 0 0 0 0 0 0 0 0 0 0 0 0 0 0 0 0 0 0 0 0 0 0 0 0 0 0 0 0 0 0 0 0 0 0 0 0 0 0 0 0 0 0 0 0 0 0 0 0 0 0 0 0 0 0 0 0 0 0 0 0 0 0 0 0 0 0 0 0 0 0 0 0 0 0 0 0 0 0 0 0 0 0 0 0 0 0 0 0 0 0 0 0 0 0 0 0 0 0 0 0 0 0 0 0 0 0 0 0 0 0 0 0 0 0 0 0 0 0 0 0 0 0 0 0 0 0 0 0 0 0 0 0 0 0 0 0 0 0 0 0 0 0 0 0 0 0 0 0 0 0 0 0 0 0 0 0 0 0 0 0 0 0 0 0 0 0 0 0 0 0 0 0 0 0 0 0 0 0 0 0 0 0 0 0 0 0 0 0 0 0 0 0 0 0 0 0 0 0 0 0 0 0 0 0 0 0 0 0 0 0 0 0 0 0 0 0 0 0 0 0 0 0 0 0 0 0 0 0 0 0 0 0 0 0 0 0 0 0 0 0 0 0 0 0 0 0 0 0 0 0 0 0 0 0 0 0 0 0 0 0 0 0 0 0</float_array>
          <technique_common>
            <accessor source="#GeometrySource2-array" count="624" stride="2">
              <param name="S" type="float"/>
              <param name="T" type="float"/>
            </accessor>
          </technique_common>
        </source>
        <vertices id="Geometry-vertices">
          <input semantic="POSITION" source="#GeometrySource"/>
          <input semantic="NORMAL" source="#GeometrySource1"/>
          <input semantic="TEXCOORD" source="#GeometrySource2"/>
        </vertices>
        <triangles material="VisualMaterial0" count="208">
          <input semantic="VERTEX" source="#Geometry-vertices" offset="0"/>
          <p>0 1 2 3 4 5 6 7 8 9 10 11 12 13 14 15 16 17 18 19 20 21 22 23 24 25 26 27 28 29 30 31 32 33 34 35 36 37 38 39 40 41 42 43 44 45 46 47 48 49 50 51 52 53 54 55 56 57 58 59 60 61 62 63 64 65 66 67 68 69 70 71 72 73 74 75 76 77 78 79 80 81 82 83 84 85 86 87 88 89 90 91 92 93 94 95 96 97 98 99 100 101 102 103 104 105 106 107 108 109 110 111 112 113 114 115 116 117 118 119 120 121 122 123 124 125 126 127 128 129 130 131 132 133 134 135 136 137 138 139 140 141 142 143 144 145 146 147 148 149 150 151 152 153 154 155 156 157 158 159 160 161 162 163 164 165 166 167 168 169 170 171 172 173 174 175 176 177 178 179 180 181 182 183 184 185 186 187 188 189 190 191 192 193 194 195 196 197 198 199 200 201 202 203 204 205 206 207 208 209 210 211 212 213 214 215 216 217 218 219 220 221 222 223 224 225 226 227 228 229 230 231 232 233 234 235 236 237 238 239 240 241 242 243 244 245 246 247 248 249 250 251 252 253 254 255 256 257 258 259 260 261 262 263 264 265 266 267 268 269 270 271 272 273 274 275 276 277 278 279 280 281 282 283 284 285 286 287 288 289 290 291 292 293 294 295 296 297 298 299 300 301 302 303 304 305 306 307 308 309 310 311 312 313 314 315 316 317 318 319 320 321 322 323 324 325 326 327 328 329 330 331 332 333 334 335 336 337 338 339 340 341 342 343 344 345 346 347 348 349 350 351 352 353 354 355 356 357 358 359 360 361 362 363 364 365 366 367 368 369 370 371 372 373 374 375 376 377 378 379 380 381 382 383 384 385 386 387 388 389 390 391 392 393 394 395 396 397 398 399 400 401 402 403 404 405 406 407 408 409 410 411 412 413 414 415 416 417 418 419 420 421 422 423 424 425 426 427 428 429 430 431 432 433 434 435 436 437 438 439 440 441 442 443 444 445 446 447 448 449 450 451 452 453 454 455 456 457 458 459 460 461 462 463 464 465 466 467 468 469 470 471 472 473 474 475 476 477 478 479 480 481 482 483 484 485 486 487 488 489 490 491 492 493 494 495 496 497 498 499 500 501 502 503 504 505 506 507 508 509 510 511 512 513 514 515 516 517 518 519 520 521 522 523 524 525 526 527 528 529 530 531 532 533 534 535 536 537 538 539 540 541 542 543 544 545 546 547 548 549 550 551 552 553 554 555 556 557 558 559 560 561 562 563 564 565 566 567 568 569 570 571 572 573 574 575 576 577 578 579 580 581 582 583 584 585 586 587 588 589 590 591 592 593 594 595 596 597 598 599 600 601 602 603 604 605 606 607 608 609 610 611 612 613 614 615 616 617 618 619 620 621 622 623</p>
        </triangles>
      </mesh>
    </geometry>
  </library_geometries>
  <library_visual_scenes>
    <visual_scene id="VisualSceneNode" name="rdmscene">
      <node id="VisualSceneNode1" name="mesh0" type="NODE">
        <matrix>1 0 0 0 0 1 0 0 0 0 1 0 0 0 0 1</matrix>
        <instance_geometry url="#Geometry">
          <bind_material>
            <technique_common>
              <instance_material symbol="VisualMaterial0" target="#VisualMaterial"/>
            </technique_common>
          </bind_material>
        </instance_geometry>
      </node>
    </visual_scene>
  </library_visual_scenes>
  <scene>
    <instance_visual_scene url="#VisualSceneNode"/>
  </scene>
</COLLADA>
