<?xml version="1.0" encoding="UTF-8"?>
<COLLADA xmlns="http://www.collada.org/2005/11/COLLADASchema" version="1.4.1">
<!--
# File generated by ImageToStl.com - Free Image and 3D model conversion tools
-->
  <asset>
    <contributor>
      <author>ImageToStl.com</author>
      <authoring_tool>ImageToStl.com</authoring_tool>
    </contributor>
    <created>2026-07-01T05:07:46</created>
    <modified>2026-07-01T05:07:46</modified>
    <up_axis>Z_UP</up_axis>
  </asset>
  <library_effects>
    <effect id="effect_0">
        <profile_COMMON>
          <technique sid="common">
            <phong>
              <diffuse>
                <color>0.85 0.85 0.85 1</color>
              </diffuse>
              <specular>
                <color>0.05 0.05 0.05 1</color>
              </specular>
              <shininess>
                <float>64</float>
              </shininess>
            </phong>
          </technique>
        </profile_COMMON>
    </effect>
  </library_effects>
  <library_materials>
    <material id="mat_0">
      <instance_effect url="#effect_0"/>
    </material>
  </library_materials>
  <library_geometries>
    <geometry id="geometry_c0c8c1cc_8807_42d0_93d3_01a45a61e4d6">
      <mesh>
        <source id="pos_0">
          <float_array id="pos_0-array" count="570">4 0.5630791 21.9191 4 1.755165 20.95885 4 5 25 4 -0.4223093 14.43932 4 -0.5630791 18.0809 4 -1.316374 13.71914 4 -5 25 4 -5 0 4 -1.919099 20.56308 4 -0.9588511 21.75517 4 0 0 4 0.4223093 11.56068 4 -0.7191383 11.68363 4 -1.439324 12.57769 4 -1.755165 19.04115 4 0.9588511 18.24483 4 0.7191383 14.31637 4 1.439324 13.42231 4 5 0 4 1.919099 19.43692 4 1.316374 12.28086 -4 1.755165 20.95885 -4 0.5630791 21.9191 -4 5 25 -4 -0.5630791 18.0809 -4 -0.4223093 14.43932 -4 -1.316374 13.71914 -4 -5 0 -4 -5 25 -4 -1.919099 20.56308 -4 -1.755165 19.04115 -4 -1.439324 12.57769 -4 -0.7191383 11.68363 -4 0.4223093 11.56068 -4 0 0 -4 -0.9588511 21.75517 -4 5 0 -4 1.316374 12.28086 -4 1.439324 13.42231 -4 0.9588511 18.24483 -4 1.919099 19.43692 -4 0.7191383 14.31637 -40 -30 0 50 0 0 40 -30 0 40 -51.76327 0 50 -51.76327 0 -50 0 0 -40 -51.76327 0 -50 -51.76327 0 40 30 0 -40 30 0 50 51.76327 0 40 51.76327 0 -50 51.76327 0 -40 51.76327 0 40 -50 -10 40 -76.33022 -9.654504 40 -35 -10 40 -77.42404 -12.0002 40 -30 -60 40 -35 -60 40 -30 -20.92716 40 -70.7899 -17.5669 40 -73.36824 -17.79248 40 -75.71394 -16.69866 40 -77.19846 -14.57854 40 -74.2101 -8.169978 -40 -30 -20.92716 -40 -50 -10 -40 -35 -10 -40 -72.07769 -11.42912 -40 -71.18362 -12.1493 -40 -71.06068 -13.29075 -40 -71.78086 -14.18482 -40 -70.7899 -17.5669 -40 -77.19846 -14.57854 -40 -72.92231 -14.30777 -40 -73.81638 -13.58758 -40 -73.93932 -12.44613 -40 -77.42404 -12.0002 -40 -73.36824 -17.79248 -40 -75.71394 -16.69866 -40 -76.33022 -9.654504 -40 -73.21914 -11.55207 -40 -74.2101 -8.169978 -40 -35 -60 -40 -30 -60 50 -30 -20.92716 50 -30 -60 -50 -30 -20.92716 -50 -30 -60 50 -35 -60 -50 -35 -60 50 -35 -10 -50 -35 -10 50 -74.2101 -8.169978 -50 -74.2101 -8.169978 40 74.2101 -8.169978 50 74.2101 -8.169978 -50 74.2101 -8.169978 -40 74.2101 -8.169978 40 76.33022 -9.654504 50 76.33022 -9.654504 40 77.42404 -12.0002 50 77.42404 -12.0002 40 77.19846 -14.57854 50 77.19846 -14.57854 40 75.71394 -16.69866 50 75.71394 -16.69866 40 73.36824 -17.79248 50 73.36824 -17.79248 40 70.7899 -17.5669 50 70.7899 -17.5669 -50 76.33022 -9.654504 -40 76.33022 -9.654504 -50 77.42404 -12.0002 -40 77.42404 -12.0002 -50 77.19846 -14.57854 -40 77.19846 -14.57854 -50 75.71394 -16.69866 -40 75.71394 -16.69866 -50 73.36824 -17.79248 -40 73.36824 -17.79248 -50 70.7899 -17.5669 -40 70.7899 -17.5669 40 50 -10 50 50 -10 -50 50 -10 -40 50 -10 40 35 -10 50 35 -10 -50 35 -10 -40 35 -10 40 35 -60 50 35 -60 -50 35 -60 -40 35 -60 40 30 -60 50 30 -60 -50 30 -60 -40 30 -60 50 30 -20.92716 40 30 -20.92716 -40 30 -20.92716 -50 30 -20.92716 50 -50 -10 -50 -50 -10 50 -70.7899 -17.5669 -50 -70.7899 -17.5669 50 -73.36824 -17.79248 50 -75.71394 -16.69866 50 -77.19846 -14.57854 50 -77.42404 -12.0002 50 -76.33022 -9.654504 -50 -73.36824 -17.79248 -50 -75.71394 -16.69866 -50 -77.19846 -14.57854 -50 -77.42404 -12.0002 -50 -76.33022 -9.654504 -40 71.06068 -12.44613 -40 71.78086 -11.55207 -40 72.92231 -11.42912 -40 73.81638 -12.1493 -40 73.21914 -14.18482 -40 72.07769 -14.30777 -40 71.18362 -13.58758 -40 73.93932 -13.29075 -50 -73.21914 -11.55207 -50 -73.93932 -12.44613 -50 -73.81638 -13.58758 -50 -72.07769 -11.42912 -50 -71.18362 -12.1493 -50 -71.78086 -14.18482 -50 -71.06068 -13.29075 -50 -72.92231 -14.30777 -50 -16.97752 -10 50 -16.97752 -10 -50 16.97752 -10 50 16.97752 -10 -50 73.21914 -14.18482 -50 73.93932 -13.29075 -50 73.81638 -12.1493 -50 72.07769 -14.30777 -50 71.18362 -13.58758 -50 71.78086 -11.55207 -50 71.06068 -12.44613 -50 72.92231 -11.42912 -50 0 -10 50 0 -10</float_array>
          <technique_common>
            <accessor source="#pos_0-array" count="570" stride="3">
              <param name="X" type="float"/>
              <param name="Y" type="float"/>
              <param name="Z" type="float"/>
            </accessor>
          </technique_common>
        </source>
        <source id="norm_0">
          <float_array id="norm_0-array" count="162">1 0 -0 1 0 -0 -1 0 0 -1 0 0 -0 0.77877 0.62731 0 0.99425 -0.1071 -0 0.1071 0.99425 0 -0.62731 0.77877 0 -0.77877 -0.62731 0 -0.99425 0.1071 0 -0.1071 -0.99425 0 0.62731 -0.77877 0 0.77877 -0.62731 -0 0.99425 0.1071 0 0.1071 -0.99425 -0 -0.62731 -0.77877 0 -0.77877 0.62731 0 -0.99425 -0.1071 0 -0.1071 0.99425 0 0.62731 0.77877 0 0 1 -0 0 1 -0 0 1 0 -0 1 0 0 1 0 -1 -0 0 1 0 0 0 -1 0 -0.34202 0.93969 0 0.34202 0.93969 0 0.57358 0.81915 0 0.90631 0.42262 0 0.99619 -0.08716 0 0.81915 -0.57358 0 0.42262 -0.90631 -0 -0.08716 -0.99619 0 -0.34202 -0.93969 0 0.34202 -0.93969 0 0.08716 -0.99619 -0 -0.42262 -0.90631 -0 -0.81915 -0.57358 -0 -0.99619 -0.08716 0 -0.90631 0.42262 0 -0.57358 0.81915 0 0.77877 -0.62731 -0 0.99425 0.10709 0 0.1071 -0.99425 -0 -0.62731 -0.77877 0 -0.77877 0.62731 0 -0.99425 -0.10709 0 -0.1071 0.99425 0 0.62731 0.77877 0 0.64279 -0.76604 0 -0.64279 -0.76604</float_array>
          <technique_common>
            <accessor source="#norm_0-array" count="162" stride="3">
              <param name="X" type="float"/>
              <param name="Y" type="float"/>
              <param name="Z" type="float"/>
            </accessor>
          </technique_common>
        </source>
        <vertices id="vert_0">
          <input semantic="POSITION" source="#pos_0"/>
        </vertices>
        <triangles count="392" material="mat_0">
          <input semantic="VERTEX" source="#vert_0" offset="0"/>
          <input semantic="NORMAL" source="#norm_0" offset="1"/>
          <p>0 0 1 0 2 0 3 0 4 0 5 0 6 0 7 0 8 0 6 0 8 0 9 0 6 0 9 0 0 0 6 1 0 1 2 1 7 0 10 0 11 0 7 0 11 0 12 0 7 0 12 0 13 0 7 0 13 0 5 0 7 0 5 0 4 0 7 0 4 0 14 0 7 0 14 0 8 0 15 0 4 0 3 0 15 0 3 0 16 0 15 0 16 0 17 0 18 0 2 0 1 0 18 0 1 0 19 0 18 0 19 0 15 0 18 0 15 0 17 0 18 0 17 0 20 0 18 0 20 0 11 0 18 0 11 0 10 0 21 2 22 2 23 2 24 2 25 2 26 2 27 2 28 2 29 2 27 2 29 2 30 2 27 2 30 2 24 2 27 3 24 3 26 3 27 2 26 2 31 2 27 2 31 2 32 2 27 2 32 2 33 2 27 2 33 2 34 2 28 3 23 3 22 3 28 2 22 2 35 2 28 2 35 2 29 2 36 2 34 2 33 2 36 2 33 2 37 2 36 2 37 2 38 2 36 2 38 2 39 2 36 2 39 2 40 2 36 2 40 2 21 2 36 2 21 2 23 2 25 2 24 2 41 2 41 2 24 2 39 2 41 2 39 2 38 2 12 4 31 4 13 4 13 5 31 5 26 5 13 5 26 5 5 5 31 4 12 4 32 4 32 6 12 6 11 6 32 6 11 6 33 6 33 7 11 7 20 7 33 7 20 7 37 7 16 8 38 8 17 8 17 9 38 9 37 9 17 9 37 9 20 9 38 8 16 8 41 8 41 10 16 10 3 10 41 10 3 10 25 10 25 11 3 11 5 11 25 11 5 11 26 11 35 12 8 12 29 12 29 13 8 13 14 13 29 13 14 13 30 13 8 12 35 12 9 12 9 14 35 14 22 14 9 14 22 14 0 14 0 15 22 15 21 15 0 15 21 15 1 15 39 16 19 16 40 16 40 17 19 17 1 17 40 17 1 17 21 17 19 16 39 16 15 16 15 18 39 18 24 18 15 18 24 18 4 18 4 19 24 19 30 19 4 19 30 19 14 19 27 20 42 20 7 20 43 21 10 21 7 21 43 20 7 20 42 20 43 22 42 22 44 22 43 23 44 23 45 23 43 24 45 24 46 24 27 20 34 20 42 20 42 20 34 20 47 20 42 20 47 20 48 20 48 20 47 20 49 20 50 20 51 20 36 20 50 20 36 20 18 20 50 20 18 20 10 20 50 20 10 20 43 20 50 20 43 20 52 20 50 20 52 20 53 20 34 21 36 21 47 21 47 20 36 20 51 20 47 20 51 20 54 20 54 20 51 20 55 20 7 25 6 25 27 25 27 25 6 25 28 25 36 26 23 26 18 26 18 26 23 26 2 26 28 20 6 20 23 20 23 20 6 20 2 20 56 2 57 2 58 2 56 2 59 2 57 2 60 2 61 2 62 2 62 2 61 2 58 2 62 2 58 2 44 2 63 3 64 3 56 3 56 2 64 2 65 2 56 3 65 3 59 3 59 2 65 2 66 2 58 2 57 2 44 2 44 3 57 3 67 3 44 2 67 2 45 2 44 25 42 25 62 25 62 25 42 25 68 25 69 0 70 0 42 0 69 0 42 0 48 0 69 1 48 1 71 1 69 0 71 0 72 0 69 0 72 0 73 0 69 0 73 0 74 0 69 0 74 0 75 0 76 0 77 0 78 0 76 0 78 0 79 0 76 0 79 0 80 0 75 0 74 0 81 0 81 0 74 0 77 0 81 0 77 0 82 0 82 0 77 0 76 0 80 0 79 0 83 0 83 0 79 0 84 0 83 0 84 0 85 0 85 0 84 0 71 0 85 1 71 1 48 1 42 0 70 0 68 0 68 0 70 0 86 0 68 0 86 0 87 0 88 26 89 26 62 26 62 26 89 26 60 26 68 26 87 26 90 26 90 26 87 26 91 26 89 27 92 27 60 27 60 27 92 27 61 27 87 27 86 27 91 27 91 27 86 27 93 27 61 25 92 25 58 25 58 25 92 25 94 25 93 25 86 25 95 25 95 25 86 25 70 25 45 28 67 28 46 28 46 28 67 28 96 28 49 28 97 28 48 28 48 28 97 28 85 28 53 29 52 29 98 29 98 29 52 29 99 29 54 29 55 29 100 29 100 29 55 29 101 29 98 30 99 30 102 30 102 30 99 30 103 30 102 31 103 31 104 31 104 31 103 31 105 31 104 32 105 32 106 32 106 32 105 32 107 32 106 33 107 33 108 33 108 33 107 33 109 33 108 34 109 34 110 34 110 34 109 34 111 34 110 35 111 35 112 35 112 35 111 35 113 35 100 30 101 30 114 30 114 30 101 30 115 30 114 31 115 31 116 31 116 31 115 31 117 31 116 32 117 32 118 32 118 32 117 32 119 32 118 33 119 33 120 33 120 33 119 33 121 33 120 34 121 34 122 34 122 34 121 34 123 34 122 35 123 35 124 35 124 35 123 35 125 35 126 36 112 36 127 36 127 36 112 36 113 36 128 36 124 36 129 36 129 36 124 36 125 36 126 27 127 27 130 27 130 27 127 27 131 27 128 27 129 27 132 27 132 27 129 27 133 27 134 26 130 26 135 26 135 26 130 26 131 26 136 26 132 26 137 26 137 26 132 26 133 26 134 27 135 27 138 27 138 27 135 27 139 27 136 27 137 27 140 27 140 27 137 27 141 27 142 25 143 25 139 25 139 25 143 25 138 25 144 25 145 25 141 25 141 25 145 25 140 25 58 27 94 27 56 27 56 27 94 27 146 27 95 27 70 27 147 27 147 27 70 27 69 27 56 37 146 37 63 37 63 37 146 37 148 37 147 37 69 37 149 37 149 37 69 37 75 37 63 38 148 38 64 38 64 38 148 38 150 38 64 39 150 39 65 39 65 39 150 39 151 39 65 40 151 40 66 40 66 40 151 40 152 40 66 41 152 41 59 41 59 41 152 41 153 41 59 42 153 42 57 42 57 42 153 42 154 42 57 43 154 43 67 43 67 43 154 43 96 43 149 38 75 38 155 38 155 38 75 38 81 38 155 39 81 39 156 39 156 39 81 39 82 39 156 40 82 40 157 40 157 40 82 40 76 40 157 41 76 41 158 41 158 41 76 41 80 41 158 42 80 42 159 42 159 42 80 42 83 42 159 43 83 43 97 43 97 43 83 43 85 43 55 0 160 0 161 0 101 1 55 1 161 1 101 1 161 1 162 1 101 1 162 1 163 1 101 0 163 0 115 0 125 0 123 0 164 0 125 1 164 1 165 1 125 0 165 0 166 0 125 0 166 0 160 0 125 1 160 1 55 1 125 0 55 0 129 0 117 0 115 0 119 0 119 1 115 1 163 1 119 1 163 1 167 1 129 0 55 0 133 0 133 0 55 0 51 0 133 0 51 0 137 0 137 0 51 0 144 0 137 0 144 0 141 0 121 1 119 1 123 1 123 0 119 0 167 0 123 0 167 0 164 0 50 26 143 26 51 26 51 26 143 26 144 26 138 2 143 2 134 2 53 2 98 2 110 2 53 3 110 3 112 3 53 2 112 2 126 2 53 2 126 2 50 2 50 2 126 2 130 2 50 2 130 2 134 2 50 2 134 2 143 2 104 2 106 2 102 2 102 2 106 2 108 2 102 2 108 2 98 2 98 3 108 3 110 3 168 44 79 44 169 44 169 45 79 45 78 45 169 45 78 45 170 45 79 44 168 44 84 44 84 46 168 46 171 46 84 46 171 46 71 46 71 47 171 47 172 47 71 47 172 47 72 47 173 48 73 48 174 48 174 49 73 49 72 49 174 49 72 49 172 49 73 48 173 48 74 48 74 50 173 50 175 50 74 50 175 50 77 50 77 51 175 51 170 51 77 51 170 51 78 51 176 52 177 52 88 52 176 52 88 52 62 52 176 52 62 52 68 52 176 52 68 52 90 52 178 53 145 53 144 53 178 53 144 53 143 53 178 53 143 53 142 53 178 53 142 53 179 53 180 48 167 48 181 48 181 49 167 49 163 49 181 49 163 49 182 49 167 48 180 48 164 48 164 50 180 50 183 50 164 50 183 50 165 50 165 51 183 51 184 51 165 51 184 51 166 51 185 44 160 44 186 44 186 45 160 45 166 45 186 45 166 45 184 45 160 44 185 44 161 44 161 46 185 46 187 46 161 46 187 46 162 46 162 47 187 47 182 47 162 47 182 47 163 47 147 2 149 2 173 2 147 2 173 2 174 2 147 2 174 2 172 2 147 2 172 2 171 2 147 3 171 3 49 3 147 2 49 2 47 2 147 2 47 2 54 2 54 2 128 2 132 2 54 2 132 2 178 2 54 2 178 2 188 2 54 2 188 2 176 2 54 2 176 2 95 2 54 2 95 2 147 2 157 2 158 2 169 2 157 2 169 2 170 2 157 2 170 2 175 2 184 2 183 2 124 2 124 3 183 3 180 3 124 2 180 2 122 2 122 3 180 3 118 3 122 3 118 3 120 3 186 2 128 2 185 2 185 2 128 2 54 2 185 3 54 3 187 3 187 2 54 2 100 2 187 2 100 2 114 2 149 2 155 2 173 2 173 2 155 2 175 2 155 2 156 2 175 2 175 2 156 2 157 2 49 3 171 3 97 3 97 2 171 2 168 2 97 2 168 2 159 2 159 2 168 2 169 2 159 2 169 2 158 2 176 2 90 2 95 2 95 2 90 2 91 2 95 2 91 2 93 2 124 2 128 2 184 2 184 2 128 2 186 2 178 2 132 2 145 2 145 2 132 2 136 2 145 2 136 2 140 2 180 3 181 3 118 3 118 3 181 3 182 3 118 3 182 3 116 3 116 2 182 2 187 2 116 2 187 2 114 2 148 0 151 0 150 0 113 0 111 0 109 0 103 0 99 0 96 0 103 0 96 0 154 0 103 0 154 0 146 0 103 0 146 0 94 0 103 0 94 0 177 0 103 0 177 0 189 0 103 0 189 0 179 0 103 0 179 0 131 0 103 0 131 0 127 0 146 0 154 0 148 0 148 1 154 1 153 1 148 0 153 0 151 0 151 0 153 0 152 0 99 1 52 1 96 1 96 0 52 0 43 0 96 0 43 0 46 0 92 0 89 0 94 0 94 0 89 0 88 0 94 0 88 0 177 0 103 0 127 0 105 0 105 1 127 1 113 1 105 0 113 0 107 0 107 0 113 0 109 0 139 0 135 0 142 0 142 0 135 0 131 0 142 0 131 0 179 0 178 27 179 27 188 27 188 27 179 27 189 27 188 27 189 27 176 27 176 27 189 27 177 27</p>
        </triangles>
      </mesh>
    </geometry>
  </library_geometries>
  <library_visual_scenes>
    <visual_scene id="DefaultScene">
      <node id="node_71a401d1_fbb1_4481_a38e_d060396d4d93" type="NODE">
        <matrix>1 0 0 0 0 1 0 0 0 0 1 0 0 0 0 1</matrix>
        <node id="node_470792ec_ded0_4117_98f0_8a47b94c8746" type="NODE">
          <matrix>1 0 0 0 0 1 0 0 0 0 1 0 0 0 0 1</matrix>
          <node id="node_470792ec_ded0_4117_98f0_8a47b94c8746_mesh0" type="NODE">
            <matrix>1 0 0 0 0 1 0 0 0 0 1 0 0 0 0 1</matrix>
            <instance_geometry url="#geometry_c0c8c1cc_8807_42d0_93d3_01a45a61e4d6">
              <bind_material>
                <technique_common>
                  <instance_material symbol="mat_0" target="#mat_0"/>
                </technique_common>
              </bind_material>
            </instance_geometry>
          </node>
        </node>
      </node>
    </visual_scene>
  </library_visual_scenes>
  <scene>
    <instance_visual_scene url="#DefaultScene"/>
  </scene>
</COLLADA>
