<?xml version="1.0" encoding="utf-8"?>
<COLLADA xmlns="http://www.collada.org/2005/11/COLLADASchema" version="1.4.1">
  <asset>
    <created>2026-05-03T02:47:57Z</created>
    <modified>2026-05-03T02:47:57Z</modified>
  </asset>
  <library_images>
    <image id="Image">
      <init_from>../../../../../%C7%D7%C1%A6%BF%AC/Convert3D/data/stlmaterial</init_from>
    </image>
  </library_images>
  <library_materials>
    <material id="VisualMaterial" name="stlmaterial">
      <instance_effect url="#Effect"/>
      <extra>
        <technique profile="FCOLLADA">
          <user_properties>stlmaterial</user_properties>
        </technique>
      </extra>
    </material>
  </library_materials>
  <library_effects>
    <effect id="Effect" name="stlmaterial">
      <profile_COMMON>
        <newparam sid="Image-surface">
          <surface type="2D">
            <init_from>Image</init_from>
            <format>A8R8G8B8</format>
          </surface>
        </newparam>
        <newparam sid="Image-sampler">
          <sampler2D>
            <source>Image-surface</source>
            <wrap_s>WRAP</wrap_s>
            <wrap_t>WRAP</wrap_t>
            <minfilter>NONE</minfilter>
            <magfilter>NONE</magfilter>
            <mipfilter>NONE</mipfilter>
          </sampler2D>
        </newparam>
        <technique sid="common">
          <phong>
            <emission>
              <color>0 0 0 1</color>
            </emission>
            <ambient>
              <color>0 0 0 1</color>
            </ambient>
            <diffuse>
              <texture texture="Image-sampler" texcoord=""/>
            </diffuse>
            <specular>
              <color>1 1 1 1</color>
            </specular>
            <shininess>
              <float>0</float>
            </shininess>
            <transparent opaque="A_ONE">
              <color>0 0 0 1</color>
            </transparent>
            <transparency>
              <float>1</float>
            </transparency>
            <index_of_refraction>
              <float>1.55</float>
            </index_of_refraction>
          </phong>
          <extra>
            <technique profile="FCOLLADA">
              <spec_level>
                <float>0</float>
              </spec_level>
            </technique>
          </extra>
        </technique>
      </profile_COMMON>
      <extra>
        <technique profile="FCOLLADA">
          <user_properties>stlmaterial</user_properties>
        </technique>
      </extra>
    </effect>
  </library_effects>
  <library_geometries>
    <geometry id="Geometry" name="mesh0">
      <mesh>
        <source id="GeometrySource" name="mesh0Pos">
          <float_array id="GeometrySource-array" count="468">177.034 -410.26 126.296 169.927 -410.632 126.941 162.824 -410.976 127.537 150.402 -411.511 128.463 149.394 -406.689 120.11 157.19 -407.009 120.666 150.402 -411.511 128.463 157.19 -407.009 120.666 165.007 -407.365 121.283 150.402 -411.511 128.463 165.007 -407.365 121.283 172.858 -407.757 121.961 150.402 -411.511 128.463 172.858 -407.757 121.961 180.733 -408.184 122.701 150.402 -411.511 128.463 180.733 -408.184 122.701 185.966 -408.488 123.228 150.402 -411.511 128.463 185.966 -408.488 123.228 191.194 -408.81 123.785 150.402 -411.511 128.463 191.194 -408.81 123.785 191.194 -409.429 124.857 150.402 -411.511 128.463 191.194 -409.429 124.857 155.737 -411.292 128.084 177.034 -410.26 126.296 162.824 -410.976 127.537 184.127 -409.859 125.603 184.127 -409.859 125.603 162.824 -410.976 127.537 155.737 -411.292 128.084 184.127 -409.859 125.603 155.737 -411.292 128.084 191.194 -409.429 124.857 191.194 -271.112 203.285 191.194 -408.81 123.785 185.997 -270.792 202.731 185.997 -270.792 202.731 191.194 -408.81 123.785 185.966 -408.488 123.228 185.997 -270.792 202.731 185.966 -408.488 123.228 180.793 -270.489 202.206 180.793 -270.489 202.206 185.966 -408.488 123.228 180.733 -408.184 122.701 180.793 -270.489 202.206 180.733 -408.184 122.701 172.949 -270.064 201.469 172.949 -270.064 201.469 180.733 -408.184 122.701 172.858 -407.757 121.961 172.949 -270.064 201.469 172.858 -407.757 121.961 165.096 -269.672 200.79 165.096 -269.672 200.79 172.858 -407.757 121.961 165.007 -407.365 121.283 165.096 -269.672 200.79 165.007 -407.365 121.283 157.243 -269.314 200.17 157.243 -269.314 200.17 165.007 -407.365 121.283 157.19 -407.009 120.666 157.243 -269.314 200.17 157.19 -407.009 120.666 149.394 -268.991 199.611 149.394 -268.991 199.611 157.19 -407.009 120.666 149.394 -406.689 120.11 191.194 -271.731 204.357 191.194 -409.429 124.857 191.194 -271.112 203.285 191.194 -271.112 203.285 191.194 -409.429 124.857 191.194 -408.81 123.785 150.402 -273.813 207.963 150.402 -411.511 128.463 155.744 -273.594 207.583 155.744 -273.594 207.583 150.402 -411.511 128.463 155.737 -411.292 128.084 155.744 -273.594 207.583 155.737 -411.292 128.084 162.841 -273.277 207.035 162.841 -273.277 207.035 155.737 -411.292 128.084 162.824 -410.976 127.537 162.841 -273.277 207.035 162.824 -410.976 127.537 169.947 -272.933 206.439 169.947 -272.933 206.439 162.824 -410.976 127.537 169.927 -410.632 126.941 169.947 -272.933 206.439 169.927 -410.632 126.941 177.048 -272.561 205.795 177.048 -272.561 205.795 169.927 -410.632 126.941 177.034 -410.26 126.296 177.048 -272.561 205.795 177.034 -410.26 126.296 184.133 -272.161 205.102 184.133 -272.161 205.102 177.034 -410.26 126.296 184.127 -409.859 125.603 184.133 -272.161 205.102 184.127 -409.859 125.603 191.194 -271.731 204.357 191.194 -271.731 204.357 184.127 -409.859 125.603 191.194 -409.429 124.857 149.394 -406.689 120.11 150.402 -411.511 128.463 149.394 -268.991 199.611 149.394 -268.991 199.611 150.402 -411.511 128.463 150.402 -273.813 207.963 162.841 -273.277 207.035 169.947 -272.933 206.439 177.048 -272.561 205.795 150.402 -273.813 207.963 155.744 -273.594 207.583 191.194 -271.731 204.357 150.402 -273.813 207.963 191.194 -271.731 204.357 191.194 -271.112 203.285 150.402 -273.813 207.963 191.194 -271.112 203.285 185.997 -270.792 202.731 150.402 -273.813 207.963 185.997 -270.792 202.731 180.793 -270.489 202.206 150.402 -273.813 207.963 180.793 -270.489 202.206 172.949 -270.064 201.469 150.402 -273.813 207.963 172.949 -270.064 201.469 165.096 -269.672 200.79 150.402 -273.813 207.963 165.096 -269.672 200.79 157.243 -269.314 200.17 150.402 -273.813 207.963 157.243 -269.314 200.17 149.394 -268.991 199.611 191.194 -271.731 204.357 155.744 -273.594 207.583 184.133 -272.161 205.102 184.133 -272.161 205.102 155.744 -273.594 207.583 162.841 -273.277 207.035 184.133 -272.161 205.102 162.841 -273.277 207.035 177.048 -272.561 205.795</float_array>
          <technique_common>
            <accessor source="#GeometrySource-array" count="156" stride="3">
              <param name="X" type="float"/>
              <param name="Y" type="float"/>
              <param name="Z" type="float"/>
            </accessor>
          </technique_common>
        </source>
        <source id="GeometrySource1" name="mesh0Nrm">
          <float_array id="GeometrySource1-array" count="468">-0.000118 -0.865442 -0.501009 -0.000118 -0.865442 -0.501009 -0.000118 -0.865442 -0.501009 0.000008 -0.866028 -0.499996 0.000008 -0.866028 -0.499996 0.000008 -0.866028 -0.499996 0.000002 -0.866026 -0.5 0.000002 -0.866026 -0.5 0.000002 -0.866026 -0.5 -0.000002 -0.866021 -0.500007 -0.000002 -0.866021 -0.500007 -0.000002 -0.866021 -0.500007 -0.000000 -0.866025 -0.500001 -0.000000 -0.866025 -0.500001 -0.000000 -0.866025 -0.500001 0.000000 -0.866027 -0.499997 0.000000 -0.866027 -0.499997 0.000000 -0.866027 -0.499997 -0.000003 -0.866013 -0.500021 -0.000003 -0.866013 -0.500021 -0.000003 -0.866013 -0.500021 -0.000002 -0.866019 -0.500012 -0.000002 -0.866019 -0.500012 -0.000002 -0.866019 -0.500012 -0.000005 -0.866003 -0.500039 -0.000005 -0.866003 -0.500039 -0.000005 -0.866003 -0.500039 -0.000005 -0.866 -0.500044 -0.000005 -0.866 -0.500044 -0.000005 -0.866 -0.500044 0.000019 -0.866121 -0.499835 0.000019 -0.866121 -0.499835 0.000019 -0.866121 -0.499835 0.000032 -0.866184 -0.499725 0.000032 -0.866184 -0.499725 0.000032 -0.866184 -0.499725 0.122134 0.496257 -0.859542 0.122134 0.496257 -0.859542 0.122134 0.496257 -0.859542 0.122095 0.496258 -0.859547 0.122095 0.496258 -0.859547 0.122095 0.496258 -0.859547 0.115555 0.496651 -0.860224 0.115555 0.496651 -0.860224 0.115555 0.496651 -0.860224 0.115484 0.496653 -0.860232 0.115484 0.496653 -0.860232 0.115484 0.496653 -0.860232 0.107926 0.49708 -0.860967 0.107926 0.49708 -0.860967 0.107926 0.49708 -0.860967 0.107859 0.497081 -0.860975 0.107859 0.497081 -0.860975 0.107859 0.497081 -0.860975 0.099305 0.497531 -0.861744 0.099305 0.497531 -0.861744 0.099305 0.497531 -0.861744 0.09922 0.497531 -0.861753 0.09922 0.497531 -0.861753 0.09922 0.497531 -0.861753 0.090844 0.497935 -0.862443 0.090844 0.497935 -0.862443 0.090844 0.497935 -0.862443 0.090757 0.497935 -0.862452 0.090757 0.497935 -0.862452 0.090757 0.497935 -0.862452 0.08202 0.498317 -0.863107 0.08202 0.498317 -0.863107 0.08202 0.498317 -0.863107 0.081987 0.498317 -0.86311 0.081987 0.498317 -0.86311 0.081987 0.498317 -0.86311 1 0 0 1 0 0 1 0 0 1 0 0 1 0 0 1 0 0 0.081746 -0.498326 0.863127 0.081746 -0.498326 0.863127 0.081746 -0.498326 0.863127 0.081757 -0.498326 0.863126 0.081757 -0.498326 0.863126 0.081757 -0.498326 0.863126 0.088809 -0.498025 0.862603 0.088809 -0.498025 0.862603 0.088809 -0.498025 0.862603 0.088786 -0.498025 0.862605 0.088786 -0.498025 0.862605 0.088786 -0.498025 0.862605 0.096485 -0.497668 0.861985 0.096485 -0.497668 0.861985 0.096485 -0.497668 0.861985 0.096459 -0.497668 0.861987 0.096459 -0.497668 0.861987 0.096459 -0.497668 0.861987 0.104159 -0.49728 0.861315 0.104159 -0.49728 0.861315 0.104159 -0.49728 0.861315 0.104153 -0.497281 0.861315 0.104153 -0.497281 0.861315 0.104153 -0.497281 0.861315 0.112196 -0.496844 0.860557 0.112196 -0.496844 0.860557 0.112196 -0.496844 0.860557 0.112185 -0.496844 0.860559 0.112185 -0.496844 0.860559 0.112185 -0.496844 0.860559 0.120942 -0.49633 0.859668 0.120942 -0.49633 0.859668 0.120942 -0.49633 0.859668 0.12093 -0.49633 0.85967 0.12093 -0.49633 0.85967 0.12093 -0.49633 0.85967 -0.994585 -0.051965 0.090006 -0.994585 -0.051965 0.090006 -0.994585 -0.051965 0.090006 -0.994585 -0.051965 0.090006 -0.994585 -0.051965 0.090006 -0.994585 -0.051965 0.090006 -0.000034 0.866184 0.499725 -0.000034 0.866184 0.499725 -0.000034 0.866184 0.499725 0.000061 0.865729 0.500512 0.000061 0.865729 0.500512 0.000061 0.865729 0.500512 -0.000001 0.866037 0.49998 -0.000001 0.866037 0.49998 -0.000001 0.866037 0.49998 0.000005 0.866011 0.500025 0.000005 0.866011 0.500025 0.000005 0.866011 0.500025 -0.000000 0.866028 0.499995 -0.000000 0.866028 0.499995 -0.000000 0.866028 0.499995 -0.000000 0.86603 0.499992 -0.000000 0.86603 0.499992 -0.000000 0.86603 0.499992 0.000005 0.86602 0.500009 0.000005 0.86602 0.500009 0.000005 0.86602 0.500009 -0.000008 0.866033 0.499987 -0.000008 0.866033 0.499987 -0.000008 0.866033 0.499987 0.000003 0.866028 0.499995 0.000003 0.866028 0.499995 0.000003 0.866028 0.499995 0.000012 0.865964 0.500106 0.000012 0.865964 0.500106 0.000012 0.865964 0.500106 0.000015 0.865946 0.500138 0.000015 0.865946 0.500138 0.000015 0.865946 0.500138 -0.000057 0.866297 0.499529 -0.000057 0.866297 0.499529 -0.000057 0.866297 0.499529</float_array>
          <technique_common>
            <accessor source="#GeometrySource1-array" count="156" stride="3">
              <param name="X" type="float"/>
              <param name="Y" type="float"/>
              <param name="Z" type="float"/>
            </accessor>
          </technique_common>
        </source>
        <source id="GeometrySource2" name="mesh0UV">
          <float_array id="GeometrySource2-array" count="312">0 0 0 0 0 0 0 0 0 0 0 0 0 0 0 0 0 0 0 0 0 0 0 0 0 0 0 0 0 0 0 0 0 0 0 0 0 0 0 0 0 0 0 0 0 0 0 0 0 0 0 0 0 0 0 0 0 0 0 0 0 0 0 0 0 0 0 0 0 0 0 0 0 0 0 0 0 0 0 0 0 0 0 0 0 0 0 0 0 0 0 0 0 0 0 0 0 0 0 0 0 0 0 0 0 0 0 0 0 0 0 0 0 0 0 0 0 0 0 0 0 0 0 0 0 0 0 0 0 0 0 0 0 0 0 0 0 0 0 0 0 0 0 0 0 0 0 0 0 0 0 0 0 0 0 0 0 0 0 0 0 0 0 0 0 0 0 0 0 0 0 0 0 0 0 0 0 0 0 0 0 0 0 0 0 0 0 0 0 0 0 0 0 0 0 0 0 0 0 0 0 0 0 0 0 0 0 0 0 0 0 0 0 0 0 0 0 0 0 0 0 0 0 0 0 0 0 0 0 0 0 0 0 0 0 0 0 0 0 0 0 0 0 0 0 0 0 0 0 0 0 0 0 0 0 0 0 0 0 0 0 0 0 0 0 0 0 0 0 0 0 0 0 0 0 0 0 0 0 0 0 0 0 0 0 0 0 0 0 0 0 0 0 0 0 0 0 0 0 0 0 0 0 0 0 0 0 0 0 0 0 0</float_array>
          <technique_common>
            <accessor source="#GeometrySource2-array" count="156" stride="2">
              <param name="S" type="float"/>
              <param name="T" type="float"/>
            </accessor>
          </technique_common>
        </source>
        <vertices id="Geometry-vertices">
          <input semantic="POSITION" source="#GeometrySource"/>
          <input semantic="NORMAL" source="#GeometrySource1"/>
          <input semantic="TEXCOORD" source="#GeometrySource2"/>
        </vertices>
        <triangles material="VisualMaterial0" count="52">
          <input semantic="VERTEX" source="#Geometry-vertices" offset="0"/>
          <p>0 1 2 3 4 5 6 7 8 9 10 11 12 13 14 15 16 17 18 19 20 21 22 23 24 25 26 27 28 29 30 31 32 33 34 35 36 37 38 39 40 41 42 43 44 45 46 47 48 49 50 51 52 53 54 55 56 57 58 59 60 61 62 63 64 65 66 67 68 69 70 71 72 73 74 75 76 77 78 79 80 81 82 83 84 85 86 87 88 89 90 91 92 93 94 95 96 97 98 99 100 101 102 103 104 105 106 107 108 109 110 111 112 113 114 115 116 117 118 119 120 121 122 123 124 125 126 127 128 129 130 131 132 133 134 135 136 137 138 139 140 141 142 143 144 145 146 147 148 149 150 151 152 153 154 155</p>
        </triangles>
      </mesh>
    </geometry>
  </library_geometries>
  <library_visual_scenes>
    <visual_scene id="VisualSceneNode" name="rdmscene">
      <node id="VisualSceneNode1" name="mesh0" type="NODE">
        <matrix>1 0 0 0 0 1 0 0 0 0 1 0 0 0 0 1</matrix>
        <instance_geometry url="#Geometry">
          <bind_material>
            <technique_common>
              <instance_material symbol="VisualMaterial0" target="#VisualMaterial"/>
            </technique_common>
          </bind_material>
        </instance_geometry>
      </node>
    </visual_scene>
  </library_visual_scenes>
  <scene>
    <instance_visual_scene url="#VisualSceneNode"/>
  </scene>
</COLLADA>
